<?xml version="1.0" encoding="UTF-8"?>
<!DOCTYPE svg PUBLIC "-//W3C//DTD SVG 1.1//EN" "http://www.w3.org/Graphics/SVG/1.1/DTD/svg11.dtd">
<svg xmlns="http://www.w3.org/2000/svg" version="1.1" width="616px" height="668px" style="shape-rendering:geometricPrecision; text-rendering:geometricPrecision; image-rendering:optimizeQuality; fill-rule:evenodd; clip-rule:evenodd" xmlns:xlink="http://www.w3.org/1999/xlink">
<g><path style="opacity:0.94" fill="#272d42" d="M 456.5,-0.5 C 456.833,-0.5 457.167,-0.5 457.5,-0.5C 495.098,25.2375 530.264,54.2375 563,86.5C 581.353,105.869 595.686,127.869 606,152.5C 611.444,168.191 614.611,184.191 615.5,200.5C 615.5,202.833 615.5,205.167 615.5,207.5C 612.761,244.067 594.428,269.233 560.5,283C 539.449,290.982 518.282,291.482 497,284.5C 498.665,301.989 500.832,319.156 503.5,336C 503.919,338.981 502.919,341.314 500.5,343C 471.167,343.667 441.833,343.667 412.5,343C 408.836,339.544 408.169,335.711 410.5,331.5C 411.902,319.846 413.569,308.013 415.5,296C 416.374,292.185 416.54,288.351 416,284.5C 397.757,290.734 378.924,290.901 359.5,285C 321.129,272.603 300.462,246.27 297.5,206C 297.926,177.072 305.426,150.239 320,125.5C 332.034,107.138 345.867,90.3046 361.5,75C 391.338,47.3062 423.005,22.1395 456.5,-0.5 Z"/></g>
<g><path style="opacity:0.937" fill="#f95959" d="M 78.5,7.5 C 112.34,7.52903 137.84,22.529 155,52.5C 171.764,22.1057 197.597,7.27232 232.5,8C 270.354,12.519 294.854,33.019 306,69.5C 310.217,88.0199 308.217,106.02 300,123.5C 262.425,196.129 214.925,261.629 157.5,320C 155.5,320.667 153.5,320.667 151.5,320C 94.6505,261.784 47.4838,196.618 10,124.5C -5.54102,87.5384 0.958978,55.0384 29.5,27C 43.8278,15.2833 60.1611,8.78335 78.5,7.5 Z"/></g>
<g><path style="opacity:0.947" fill="#272d41" d="M 187.5,667.5 C 165.5,667.5 143.5,667.5 121.5,667.5C 121.217,666.711 120.717,666.044 120,665.5C 119.667,650.167 119.333,634.833 119,619.5C 75.6514,635.001 40.3181,624.334 13,587.5C 4.72251,573.512 0.222514,558.512 -0.5,542.5C -0.5,541.833 -0.5,541.167 -0.5,540.5C 0.833333,540.167 0.833333,539.833 -0.5,539.5C -0.5,539.167 -0.5,538.833 -0.5,538.5C 2.70852,503.763 20.0419,478.596 51.5,463C 62.4132,458.584 73.7465,456.417 85.5,456.5C 71.2596,418.642 79.9263,386.808 111.5,361C 134.669,347.074 159.002,344.74 184.5,354C 219.215,371.453 234.048,399.62 229,438.5C 227.467,444.265 225.634,449.932 223.5,455.5C 268.629,459.139 296.795,482.805 308,526.5C 312.644,575.491 291.811,607.991 245.5,624C 226.476,628.368 207.976,626.868 190,619.5C 189.667,634.5 189.333,649.5 189,664.5C 188.487,665.527 187.987,666.527 187.5,667.5 Z"/></g>
<g><path style="opacity:0.967" fill="#f85959" d="M 550.5,461.5 C 551.171,462.847 551.171,464.014 550.5,465C 551.352,466.728 552.352,466.895 553.5,465.5C 555.543,466.579 556.876,468.246 557.5,470.5C 557.5,472.5 558.5,473.5 560.5,473.5C 568.786,484.292 577.286,494.959 586,505.5C 586.667,506.833 586.667,508.167 586,509.5C 544,562.33 501.833,614.997 459.5,667.5C 458.833,667.5 458.167,667.5 457.5,667.5C 415.167,614.997 373,562.33 331,509.5C 330.333,508.167 330.333,506.833 331,505.5C 370.148,457.198 408.815,408.531 447,359.5C 450.314,355.019 454.148,351.019 458.5,347.5C 461.456,350.958 464.623,354.292 468,357.5C 495.333,392.329 522.833,426.996 550.5,461.5 Z"/></g>
<g><path style="opacity:0.148" fill="#fa5858" d="M 550.5,461.5 C 552.262,462.262 553.262,463.596 553.5,465.5C 552.352,466.895 551.352,466.728 550.5,465C 551.171,464.014 551.171,462.847 550.5,461.5 Z"/></g>
<g><path style="opacity:0.043" fill="#f85656" d="M 557.5,470.5 C 558.833,471.167 559.833,472.167 560.5,473.5C 558.5,473.5 557.5,472.5 557.5,470.5 Z"/></g>
</svg>
