<svg width="147" height="152" viewBox="0 0 147 152" fill="none" xmlns="http://www.w3.org/2000/svg">
<path d="M126.877 25.5216V55.0809C116.213 38.3235 89.5532 39.0852 42.3276 39.0852L45.3748 22.3277L91.8387 0.999993L126.877 25.5216Z" fill="#FF6262"/>
<path d="M126.444 80.8387C126.444 90.1985 123.958 98.2908 118.986 105.116C114.013 111.843 107.042 116.767 98.0722 119.887L115.476 150.599H85.2025L69.9928 123.397H55.3681L49.9569 150.599H21L41.4746 48.2256H85.2025C98.2672 48.2256 108.407 51.1018 115.622 56.8542C122.837 62.6065 126.444 70.6014 126.444 80.8387ZM97.1947 83.6174C97.1947 79.425 95.781 76.305 92.9536 74.2576C90.1261 72.1126 86.1774 71.0401 81.1076 71.0401H65.8978L59.7555 101.021H77.0126C83.4475 101.021 88.4199 99.5096 91.9298 96.4871C95.4398 93.4647 97.1947 89.1748 97.1947 83.6174Z" fill="#FF6262"/>
</svg>
