<svg width="199" height="191" viewBox="0 0 199 191" fill="none" xmlns="http://www.w3.org/2000/svg">
<path d="M11.1913 83V3.8H26.7433V36.824L55.7833 3.8H74.7913L40.9993 41.912L79.5913 83H58.0873L26.7433 49.544V83H11.1913ZM74.8625 83V3.8H118.927V17.432H90.4145V36.488H117.775V50.12H90.4145V69.368H118.927V83H74.8625ZM122.596 83V3.8H138.148L172.276 57.08V3.8H187.828V83H172.276L138.148 29.72V83H122.596Z" fill="#375281"/>
<path d="M188.106 166V86.8H172.554L138.426 140.08V86.8H122.874V166H138.426L172.554 112.72V166H188.106Z" fill="#775AD8"/>
<path d="M11.9175 166V86.8H27.4695V119.824L56.5095 86.8H75.5175L41.7255 124.912L80.3175 166H58.8135L27.4695 132.544V166H11.9175ZM75.5888 166V86.8H119.653V100.432H91.1408V119.488H118.501V133.12H91.1408V152.368H119.653V166H75.5888Z" fill="#775AD8"/>
</svg>
