<svg width="1696" height="1676" viewBox="0 0 1696 1676" fill="none" xmlns="http://www.w3.org/2000/svg">
<path d="M636.2 642.3C636.333 641.5 636.733 640.633 637.4 639.7C638.2 638.767 639.133 637.9 640.2 637.1C641.267 636.3 642.4 635.7 643.6 635.3C644.8 634.767 645.933 634.5 647 634.5H698.2C700.467 634.5 702.4 635.233 704 636.7C705.6 638.033 706.8 639.233 707.6 640.3L712.6 651.7L817.6 922.5C818.667 925.167 818.467 927.367 817 929.1C815.533 930.7 813 931.5 809.4 931.5H752C748.933 931.5 746.533 930.967 744.8 929.9C743.2 928.7 741.933 926.767 741 924.1C738.333 917.3 735.733 910.567 733.2 903.9C730.667 897.1 728.133 890.3 725.6 883.5H619.4C616.867 890.3 614.267 897.1 611.6 903.9C609.067 910.567 606.533 917.3 604 924.1C602.267 929.033 598.867 931.5 593.8 931.5H534.8C532.267 931.5 530.133 930.833 528.4 929.5C526.8 928.167 526.533 926.167 527.6 923.5L636.2 642.3ZM672.6 727.9C670.067 734.7 667.467 742.033 664.8 749.9C662.267 757.767 659.733 765.7 657.2 773.7C654.667 781.7 652.067 789.633 649.4 797.5C646.867 805.233 644.333 812.5 641.8 819.3H703.2L672.6 727.9ZM841.65 643.7C841.65 640.9 842.383 638.7 843.85 637.1C845.317 635.367 847.517 634.5 850.45 634.5H978.25C987.45 634.5 996.117 635.767 1004.25 638.3C1012.38 640.833 1019.85 644.367 1026.65 648.9C1033.45 653.3 1039.58 658.633 1045.05 664.9C1050.52 671.033 1055.12 677.7 1058.85 684.9C1062.72 692.1 1065.65 699.7 1067.65 707.7C1069.65 715.567 1070.65 723.567 1070.65 731.7C1070.65 743.7 1068.45 755.433 1064.05 766.9C1059.78 778.367 1053.65 788.567 1045.65 797.5C1037.65 806.433 1028.05 813.7 1016.85 819.3C1005.65 824.767 993.25 827.567 979.65 827.7H919.05V922.9C919.05 928.633 915.983 931.5 909.85 931.5H850.45C847.783 931.5 845.65 930.833 844.05 929.5C842.45 928.033 841.65 925.833 841.65 922.9V643.7ZM992.25 731.3C992.25 727.3 991.517 723.3 990.05 719.3C988.717 715.3 986.717 711.767 984.05 708.7C981.383 705.5 978.117 702.9 974.25 700.9C970.517 698.9 966.25 697.9 961.45 697.9H919.05V764.7H961.45C966.25 764.7 970.583 763.767 974.45 761.9C978.317 759.9 981.517 757.367 984.05 754.3C986.717 751.233 988.717 747.7 990.05 743.7C991.517 739.7 992.25 735.567 992.25 731.3ZM1103 643.3C1103 640.9 1103.73 638.833 1105.2 637.1C1106.67 635.367 1108.87 634.5 1111.8 634.5H1170.6C1172.6 634.5 1174.73 635.3 1177 636.9C1179.27 638.5 1180.4 640.633 1180.4 643.3V922.7C1180.4 928.567 1177.13 931.5 1170.6 931.5H1111.8C1105.93 931.5 1103 928.567 1103 922.7V643.3Z" fill="#34475F"/>
<g clip-path="url(#clip0_1_60)">
<path d="M301.547 952.937C301.168 952.87 300.876 952.725 300.677 952.589C285.511 941.31 263.576 885.793 293.843 860.421C318.853 839.456 328.561 834.185 356.553 792.854C356.935 792.289 357.257 791.813 357.792 791.836C358.326 791.858 358.346 792.203 358.552 792.76C367.719 817.535 383.835 906.391 303.493 952.435C302.633 952.814 302.045 953.041 301.547 952.937Z" fill="#38B263"/>
<path d="M264.867 814.473C264.533 814.279 264.31 814.043 264.17 813.847C253.808 798.04 252.304 738.366 289.451 724.951C320.146 713.867 331.075 712.256 371.574 683.073C372.127 682.675 372.593 682.338 373.087 682.543C373.581 682.748 373.481 683.079 373.483 683.673C373.571 710.089 358.144 799.067 266.867 814.671C265.928 814.731 265.298 814.742 264.867 814.473Z" fill="#38B263"/>
<path d="M276.109 678.387C275.861 678.092 275.731 677.793 275.666 677.561C271.295 659.173 290.17 602.542 329.665 602.557C362.3 602.568 373.125 604.769 421.133 591.094C421.789 590.907 422.342 590.749 422.737 591.109C423.131 591.47 422.925 591.747 422.722 592.306C413.823 617.178 369.063 695.611 277.919 679.252C277.016 678.99 276.423 678.787 276.109 678.387Z" fill="#38B263"/>
<path d="M370.578 1070.03C370.195 1070.08 369.874 1070.02 369.645 1069.95C351.862 1063.55 314.784 1016.76 336.403 983.712C354.268 956.401 362.033 948.544 376.851 900.876C377.053 900.224 377.223 899.676 377.741 899.542C378.259 899.409 378.378 899.733 378.735 900.209C394.686 921.266 435.851 1001.64 372.293 1068.99C371.579 1069.6 371.084 1069.99 370.578 1070.03Z" fill="#38B263"/>
<path d="M491.57 1144C491.222 1144.16 490.9 1144.21 490.659 1144.22C471.763 1143.84 421.677 1111.36 431.597 1073.13C439.794 1041.54 444.641 1031.61 443.444 981.711C443.429 981.029 443.414 980.455 443.861 980.163C444.309 979.871 444.526 980.14 445.016 980.478C466.861 995.33 531.559 1058.33 492.861 1142.46C492.38 1143.27 492.036 1143.79 491.57 1144Z" fill="#38B263"/>
<path d="M466.981 1176.85C467.102 1176.48 467.111 1176.16 467.083 1175.92C464.282 1157.23 425.653 1111.72 389.011 1126.46C358.734 1138.64 349.51 1144.71 299.865 1149.93C299.187 1150 298.615 1150.06 298.383 1150.54C298.151 1151.02 298.445 1151.2 298.843 1151.64C316.374 1171.4 387.15 1227.49 465.622 1178.33C466.362 1177.75 466.839 1177.34 466.981 1176.85Z" fill="#38B263"/>
<path d="M338.888 1092.31C339.105 1091.99 339.203 1091.68 339.241 1091.45C341.67 1072.7 316.992 1018.35 277.713 1022.48C245.258 1025.9 234.721 1029.22 185.548 1020.62C184.876 1020.51 184.31 1020.41 183.955 1020.81C183.601 1021.21 183.834 1021.46 184.095 1021.99C195.539 1045.8 248.235 1119.14 337.176 1093.36C338.047 1093.01 338.618 1092.74 338.888 1092.31Z" fill="#38B263"/>
<path d="M265.618 966.445C265.919 966.203 266.103 965.935 266.209 965.718C274.005 948.501 266.271 889.31 227.497 881.796C195.458 875.587 184.412 875.684 139.891 853.109C139.282 852.801 138.77 852.54 138.314 852.818C137.858 853.097 138.007 853.408 138.1 853.996C142.094 880.109 171.083 965.635 263.675 966.949C264.611 966.864 265.234 966.778 265.618 966.445Z" fill="#38B263"/>
<path d="M226.89 810.99C227.251 810.852 227.508 810.653 227.676 810.48C240.385 796.49 251.215 737.787 216.627 718.722C188.046 702.967 177.504 699.665 142.075 664.5C141.59 664.021 141.183 663.615 140.663 663.74C140.144 663.865 140.19 664.207 140.098 664.795C135.875 690.871 137.179 781.167 224.886 810.872C225.803 811.078 226.422 811.188 226.89 810.99Z" fill="#38B263"/>
<path d="M243.369 665.123C243.755 665.12 244.065 665.021 244.282 664.916C261.035 656.165 291.438 604.794 265.543 574.973C244.146 550.332 235.388 543.598 214.253 498.375C213.963 497.758 213.721 497.237 213.19 497.174C212.659 497.113 212.585 497.45 212.296 497.97C199.342 520.992 169.437 606.202 241.528 664.322C242.318 664.832 242.861 665.149 243.369 665.123Z" fill="#38B263"/>
<path d="M312.163 563.647C408.837 563.625 416.19 486.418 419.102 449.34C419.117 449.155 419.072 449.019 418.951 449.002C418.829 448.983 418.67 449.146 418.67 449.146C390.834 482.227 328.905 452.75 308.795 555.845C308.795 555.845 307.706 561.153 308.684 562.496C309.662 563.838 312.163 563.647 312.163 563.647Z" fill="#38B263"/>
</g>
<g clip-path="url(#clip1_1_60)">
<path d="M1394.4 952.937C1394.78 952.87 1395.07 952.725 1395.27 952.589C1410.44 941.31 1432.37 885.793 1402.1 860.421C1377.09 839.456 1367.39 834.185 1339.39 792.854C1339.01 792.289 1338.69 791.813 1338.16 791.835C1337.62 791.858 1337.6 792.203 1337.39 792.76C1328.23 817.534 1312.11 906.39 1392.45 952.435C1393.31 952.814 1393.9 953.041 1394.4 952.937Z" fill="#38B263"/>
<path d="M1431.08 814.472C1431.41 814.279 1431.64 814.042 1431.78 813.847C1442.14 798.04 1443.64 738.366 1406.5 724.951C1375.8 713.867 1364.87 712.256 1324.37 683.073C1323.82 682.674 1323.35 682.338 1322.86 682.543C1322.37 682.748 1322.47 683.079 1322.46 683.673C1322.38 710.089 1337.8 799.067 1429.08 814.671C1430.02 814.731 1430.65 814.742 1431.08 814.472Z" fill="#38B263"/>
<path d="M1419.84 678.387C1420.09 678.092 1420.22 677.793 1420.28 677.561C1424.65 659.173 1405.78 602.542 1366.28 602.557C1333.65 602.568 1322.82 604.769 1274.81 591.094C1274.16 590.907 1273.61 590.749 1273.21 591.11C1272.82 591.47 1273.02 591.748 1273.23 592.307C1282.12 617.179 1326.88 695.612 1418.03 679.253C1418.93 678.991 1419.52 678.787 1419.84 678.387Z" fill="#38B263"/>
<path d="M1325.37 1070.03C1325.75 1070.08 1326.07 1070.02 1326.3 1069.95C1344.09 1063.55 1381.16 1016.76 1359.54 983.712C1341.68 956.401 1333.91 948.544 1319.1 900.876C1318.89 900.224 1318.72 899.675 1318.21 899.542C1317.69 899.409 1317.57 899.733 1317.21 900.209C1301.26 921.265 1260.1 1001.64 1323.65 1068.99C1324.37 1069.6 1324.86 1069.99 1325.37 1070.03Z" fill="#38B263"/>
<path d="M1204.38 1144C1204.72 1144.16 1205.05 1144.21 1205.29 1144.22C1224.18 1143.84 1274.27 1111.36 1264.35 1073.13C1256.15 1041.54 1251.31 1031.61 1252.5 981.711C1252.52 981.029 1252.53 980.455 1252.09 980.163C1251.64 979.871 1251.42 980.14 1250.93 980.477C1229.09 995.33 1164.39 1058.33 1203.09 1142.46C1203.57 1143.27 1203.91 1143.79 1204.38 1144Z" fill="#38B263"/>
<path d="M1228.97 1176.85C1228.84 1176.48 1228.84 1176.16 1228.86 1175.92C1231.67 1157.23 1270.29 1111.72 1306.94 1126.46C1337.21 1138.64 1346.44 1144.71 1396.08 1149.93C1396.76 1150 1397.33 1150.06 1397.56 1150.54C1397.8 1151.02 1397.5 1151.2 1397.1 1151.64C1379.57 1171.4 1308.8 1227.49 1230.32 1178.33C1229.58 1177.75 1229.11 1177.34 1228.97 1176.85Z" fill="#38B263"/>
<path d="M1357.06 1092.31C1356.84 1091.99 1356.74 1091.68 1356.71 1091.45C1354.28 1072.7 1378.96 1018.35 1418.23 1022.48C1450.69 1025.9 1461.23 1029.22 1510.4 1020.62C1511.07 1020.51 1511.64 1020.41 1511.99 1020.81C1512.35 1021.21 1512.11 1021.46 1511.85 1021.99C1500.41 1045.8 1447.71 1119.14 1358.77 1093.36C1357.9 1093.01 1357.33 1092.74 1357.06 1092.31Z" fill="#38B263"/>
<path d="M1430.33 966.445C1430.03 966.203 1429.84 965.935 1429.74 965.718C1421.94 948.5 1429.68 889.31 1468.45 881.796C1500.49 875.587 1511.53 875.684 1556.06 853.108C1556.67 852.801 1557.18 852.54 1557.63 852.818C1558.09 853.097 1557.94 853.408 1557.85 853.996C1553.85 880.108 1524.86 965.635 1432.27 966.949C1431.34 966.864 1430.71 966.778 1430.33 966.445Z" fill="#38B263"/>
<path d="M1469.06 810.99C1468.7 810.852 1468.44 810.653 1468.27 810.479C1455.56 796.49 1444.73 737.787 1479.32 718.721C1507.9 702.967 1518.44 699.665 1553.87 664.5C1554.36 664.021 1554.76 663.615 1555.28 663.74C1555.8 663.865 1555.76 664.207 1555.85 664.795C1560.07 690.871 1558.77 781.167 1471.06 810.872C1470.14 811.078 1469.52 811.188 1469.06 810.99Z" fill="#38B263"/>
<path d="M1452.58 665.123C1452.19 665.118 1451.88 665.02 1451.66 664.915C1434.91 656.165 1404.51 604.794 1430.4 574.973C1451.8 550.332 1460.56 543.598 1481.69 498.375C1481.98 497.758 1482.23 497.237 1482.76 497.174C1483.29 497.113 1483.36 497.45 1483.65 497.97C1496.6 520.992 1526.51 606.202 1454.42 664.322C1453.63 664.832 1453.09 665.149 1452.58 665.123Z" fill="#38B263"/>
<path d="M1383.78 563.647C1287.11 563.624 1279.76 486.418 1276.84 449.34C1276.83 449.155 1276.88 449.019 1277 449.001C1277.12 448.984 1277.28 449.146 1277.28 449.146C1305.11 482.227 1367.04 452.75 1387.15 555.845C1387.15 555.845 1388.24 561.153 1387.26 562.496C1386.28 563.838 1383.78 563.647 1383.78 563.647Z" fill="#38B263"/>
</g>
<defs>
<clipPath id="clip0_1_60">
<rect width="366.947" height="748.997" fill="white" transform="translate(138 449)"/>
</clipPath>
<clipPath id="clip1_1_60">
<rect width="366.947" height="748.997" fill="white" transform="translate(1191 449)"/>
</clipPath>
</defs>
</svg>
