<?xml version="1.0" encoding="UTF-8" standalone="no"?>
<!-- Created with Inkscape (http://www.inkscape.org/) -->

<svg
   width="218.28238mm"
   height="198.45728mm"
   viewBox="0 0 218.28238 198.45728"
   version="1.1"
   id="svg1"
   xml:space="preserve"
   inkscape:export-filename="..\Documents\Greek Tree\wreath.svg"
   inkscape:export-xdpi="96"
   inkscape:export-ydpi="96"
   inkscape:version="1.3 (0e150ed6c4, 2023-07-21)"
   sodipodi:docname="wreath.svg"
   xmlns:inkscape="http://www.inkscape.org/namespaces/inkscape"
   xmlns:sodipodi="http://sodipodi.sourceforge.net/DTD/sodipodi-0.dtd"
   xmlns="http://www.w3.org/2000/svg"
   xmlns:svg="http://www.w3.org/2000/svg"><sodipodi:namedview
     id="namedview1"
     pagecolor="#ffffff"
     bordercolor="#000000"
     borderopacity="0.25"
     inkscape:showpageshadow="2"
     inkscape:pageopacity="0.0"
     inkscape:pagecheckerboard="0"
     inkscape:deskcolor="#d1d1d1"
     inkscape:document-units="mm"
     inkscape:zoom="0.5"
     inkscape:cx="-74"
     inkscape:cy="417"
     inkscape:window-width="1920"
     inkscape:window-height="1009"
     inkscape:window-x="-8"
     inkscape:window-y="-8"
     inkscape:window-maximized="1"
     inkscape:current-layer="g2" /><defs
     id="defs1" /><g
     inkscape:label="Capa 1"
     inkscape:groupmode="layer"
     id="layer1"
     transform="translate(8.9352448,-33.197135)"><path
       d="M -18.162216,109.91336 V 218.56891 H 97.901674 213.96556 V 109.91336 1.2578015 H 97.901674 -18.162216 Z M 63.364728,23.447524 c -0.211666,0.493889 -0.458611,1.869722 -0.599722,3.033889 -0.105833,1.164167 -0.352778,2.257778 -0.493889,2.469445 -0.141111,0.176388 -0.458611,1.234722 -0.705555,2.293055 -0.246945,1.058333 -0.811389,2.504722 -1.234722,3.175 -0.423334,0.670278 -0.9525,1.763889 -1.199445,2.363611 -0.282222,0.635 -0.599722,1.164167 -0.776111,1.164167 -0.176389,0 -0.3175,0.246944 -0.3175,0.529167 0,1.340555 -7.9375,7.9375 -9.595556,7.9375 -0.282222,0 -0.635,0.141111 -0.811388,0.3175 -0.917223,0.881944 -7.267223,2.081388 -11.183056,2.116666 -2.328333,0.03528 -2.293056,0.141111 -1.693333,-3.351389 0.388055,-2.187222 0.493889,-2.504722 1.728611,-5.115277 0.388055,-0.881945 0.740833,-1.869723 0.740833,-2.151945 0,-0.282222 0.493889,-1.199444 1.058333,-1.975555 0.599723,-0.811389 1.058334,-1.622778 1.058334,-1.834445 0,-0.176389 0.458611,-0.881944 1.058333,-1.516944 0.564445,-0.670278 1.058333,-1.375834 1.058333,-1.552223 0,-0.423333 3.351389,-3.633611 3.774723,-3.633611 0.211666,0 0.599722,-0.282222 0.846666,-0.599722 0.740834,-0.881944 4.691945,-2.575278 6.949723,-2.963333 1.128888,-0.176389 2.328333,-0.493889 2.716388,-0.635 3.704167,-1.622778 6.279445,-3.069167 6.949723,-3.880556 l 0.811389,-0.9525 0.105833,1.905 c 0.07055,1.093611 -0.03528,2.363611 -0.246945,2.8575 z M 138.04778,21.93058 c 3.95111,1.834444 3.95111,1.834444 6.13833,2.2225 2.25778,0.388055 6.20889,2.081389 6.94973,2.963333 0.24694,0.3175 0.635,0.599722 0.84666,0.599722 0.42334,0 3.77472,3.210278 3.77472,3.633611 0,0.176389 0.49389,0.881945 1.05834,1.552223 0.59972,0.635 1.05833,1.340555 1.05833,1.516944 0,0.211667 0.49389,1.023056 1.05833,1.834445 0.59973,0.776111 1.05834,1.693333 1.05834,1.975555 0,0.282222 0.35278,1.27 0.74083,2.151945 1.23472,2.610555 1.34056,2.928055 1.72861,5.115277 0.59972,3.4925 0.635,3.386667 -1.65805,3.351389 -3.95111,-0.03528 -10.30111,-1.234722 -11.18306,-2.116666 -0.21167,-0.176389 -0.56444,-0.3175 -0.84667,-0.3175 -1.65805,0 -9.59555,-6.596945 -9.59555,-7.9375 0,-0.282223 -0.14111,-0.529167 -0.3175,-0.529167 -0.17639,0 -0.49389,-0.529167 -0.77611,-1.164167 -0.24695,-0.599722 -0.77611,-1.693333 -1.19945,-2.363611 -0.42333,-0.670278 -0.98777,-2.116667 -1.23472,-3.175 -0.24694,-1.058333 -0.59972,-2.187222 -0.74083,-2.469444 -0.38806,-0.705556 -1.05834,-4.903611 -1.27,-7.902223 l -0.17639,-2.469444 0.9525,1.128889 c 0.49389,0.599722 2.15194,1.693333 3.63361,2.398889 z M 11.894451,36.323913 c 0.987777,1.975556 5.644444,8.149167 7.690555,10.265833 3.633611,3.739445 4.374445,4.621389 5.009445,6.173612 0.388055,0.881944 0.846666,1.940277 1.058333,2.363611 0.493889,1.023055 0.105833,7.196666 -0.564444,9.101666 -1.411112,3.951111 -3.704167,7.725834 -5.820834,9.595556 -1.5875,1.411111 -2.151944,1.446389 -3.633611,0.176389 -0.635,-0.564445 -1.446389,-1.164167 -1.799167,-1.375834 C 13.481951,72.448358 12.211951,71.178358 11.047784,69.837802 8.6488946,67.086135 6.2147276,62.394191 5.3680616,58.76058 c -1.552222,-6.35 -0.176389,-14.993056 3.527778,-22.330834 1.3405554,-2.716388 1.6580554,-2.716388 2.9986114,-0.105833 z m 176.459439,0.105833 c 3.66889,7.337778 5.00945,16.016112 3.4925,22.330834 -0.84667,3.633611 -3.28083,8.325555 -5.67972,11.077222 -1.16417,1.340556 -2.43417,2.610556 -2.78695,2.786944 -0.35277,0.211667 -1.16416,0.811389 -1.79916,1.375834 -1.48167,1.27 -2.04611,1.234722 -3.63361,-0.176389 -2.11667,-1.869722 -4.40973,-5.644445 -5.82084,-9.595556 -0.67027,-1.905 -1.05833,-8.078611 -0.56444,-9.101666 0.21167,-0.423334 0.67028,-1.481667 1.05833,-2.363611 0.635,-1.552223 1.37584,-2.434167 5.00945,-6.173612 1.97555,-2.010833 6.6675,-8.255 7.58472,-10.054166 0.56444,-1.164167 1.55222,-2.469445 1.79917,-2.469445 0.0705,0 0.67027,1.058334 1.34055,2.363611 z M 64.881673,56.714469 c -0.740833,2.434166 -5.856111,10.089444 -8.678333,12.982222 -5.468056,5.609167 -12.488334,9.136944 -19.649723,9.913055 -4.233333,0.458612 -9.313333,0.246945 -10.089444,-0.388055 -0.740833,-0.599722 -0.670278,-2.645833 0.176389,-5.044722 0.388055,-1.093611 0.705555,-2.2225 0.705555,-2.504723 0,-0.282222 0.564445,-1.305277 1.234723,-2.328333 0.670277,-1.023055 1.234722,-1.905 1.234722,-1.975555 0,-0.3175 2.963333,-4.021667 3.210278,-4.021667 0.176388,0 0.740833,-0.458611 1.27,-0.987778 1.199444,-1.199444 5.185833,-3.245555 6.35,-3.245555 0.458611,0 1.128888,-0.141112 1.446388,-0.3175 0.3175,-0.141112 3.175,-0.388056 6.279445,-0.529167 3.139722,-0.105833 5.926667,-0.282222 6.173611,-0.352778 0.282222,-0.105833 1.375833,-0.246944 2.434167,-0.388055 2.081389,-0.211667 4.374444,-0.635 6.35,-1.164167 1.799166,-0.493889 1.834444,-0.493889 1.552222,0.352778 z m 70.061667,-0.07056 c 1.02305,0.352778 2.99861,0.670278 5.46805,0.917222 0.98778,0.105834 1.97556,0.246945 2.25778,0.352778 0.24694,0.07056 3.03389,0.246945 6.17361,0.352778 3.10444,0.141111 5.96194,0.388055 6.27944,0.529167 0.3175,0.176388 0.98778,0.3175 1.44639,0.3175 1.16417,0 5.15056,2.046111 6.35,3.245555 0.52917,0.529167 1.09361,0.987778 1.27,0.987778 0.24695,0 3.21028,3.704167 3.21028,4.021667 0,0.07055 0.56445,0.9525 1.23472,1.975555 0.67028,1.023056 1.23473,2.046111 1.23473,2.328333 0,0.282223 0.3175,1.411112 0.70555,2.504723 0.84667,2.398889 0.91722,4.445 0.17639,5.044722 -0.77611,0.635 -5.85611,0.846667 -10.08944,0.388055 -7.16139,-0.776111 -14.18167,-4.303888 -19.64973,-9.913055 -2.82222,-2.892778 -7.9375,-10.548056 -8.71361,-12.982222 -0.21166,-0.740834 -0.14111,-0.776111 0.77611,-0.599723 0.52917,0.141112 1.37584,0.352778 1.86973,0.529167 z M -3.5219384,80.66808 c 1.164166,0.987778 2.68111099,2.081389 3.35138899,2.469444 0.670277,0.388056 1.72861101,0.987778 2.29305501,1.375834 0.987778,0.670277 2.151945,1.305277 7.478889,4.1275 1.1641674,0.635 2.5400004,1.693333 3.1044454,2.469444 0.564444,0.740833 1.234722,1.552222 1.446388,1.763889 0.493889,0.529167 1.728612,4.268611 2.081389,6.279444 0.705556,4.198055 -0.3175,10.336385 -2.328333,13.723055 -0.670278,1.16417 -0.917222,1.30528 -1.869722,1.16417 -1.305278,-0.17639 -3.1750004,-0.81139 -4.6213894,-1.5875 -0.564445,-0.28223 -1.763889,-0.88195 -2.645833,-1.30528 -2.434167,-1.19945 -6.561667,-4.97417 -7.62,-6.985 -0.282223,-0.52917 -0.670278,-0.9525 -0.846667,-0.9525 -0.211667,0 -0.352778,-0.21167 -0.352778,-0.49389 0,-0.24695 -0.3175,-0.84667 -0.670278,-1.34056 -0.740833,-0.9525 -2.434166,-5.185828 -2.681111,-6.632217 -0.070555,-0.493889 -0.3175,-2.010833 -0.564444,-3.351389 -0.4233336,-2.504722 -0.2822224,-12.417778 0.176389,-13.193889 0.3175,-0.529166 1.5875,0.211667 4.268611,2.469445 z M 205.39306,83.701969 c 0.14111,3.280833 0.0353,6.138333 -0.21167,7.690555 -0.24694,1.340556 -0.49389,2.8575 -0.56444,3.351389 -0.24695,1.446389 -1.94028,5.679717 -2.68111,6.632217 -0.35278,0.49389 -0.67028,1.09361 -0.67028,1.34056 0,0.28222 -0.14111,0.49389 -0.35278,0.49389 -0.17639,0 -0.56444,0.42333 -0.84667,0.9525 -1.05833,2.01083 -5.18583,5.78555 -7.62,6.985 -0.88194,0.42333 -2.04611,1.02305 -2.64583,1.30528 -1.44639,0.77611 -3.31611,1.41111 -4.62139,1.5875 -0.9525,0.14111 -1.19944,0 -1.86972,-1.16417 -2.01083,-3.38667 -3.03389,-9.525 -2.32833,-13.723055 0.35277,-2.010833 1.5875,-5.750277 2.08138,-6.279444 0.21167,-0.211667 0.88195,-1.023056 1.44639,-1.763889 0.56445,-0.776111 1.94028,-1.834444 3.10445,-2.469444 5.29166,-2.822223 6.49111,-3.457223 7.47889,-4.1275 0.59972,-0.388056 1.55222,-0.9525 2.11666,-1.27 0.59973,-0.3175 1.97556,-1.340556 3.10445,-2.2225 3.52778,-2.786945 4.23333,-3.245556 4.58611,-2.892778 0.17639,0.176389 0.42333,2.681111 0.49389,5.573889 z M 51.687784,80.809191 c 0,1.058333 -1.128889,7.126111 -1.834444,9.701389 -1.481667,5.609166 -5.609167,12.55889 -9.666112,16.22778 -2.081388,1.86972 -4.621388,3.88055 -4.938888,3.88055 -0.141112,0 -0.529167,0.24695 -0.846667,0.52917 -0.811389,0.74083 -8.396111,3.56305 -10.371667,3.84528 -1.622778,0.24694 -1.658055,0.24694 -2.116666,-0.91723 -0.246945,-0.635 -0.564445,-2.57527 -0.705556,-4.30389 -0.176389,-2.54 -0.07056,-3.63361 0.529167,-5.82083 0.388055,-1.48167 0.881944,-3.21028 1.023055,-3.88055 0.176389,-0.67028 0.599722,-1.62278 0.987778,-2.116669 0.388056,-0.529167 0.776111,-1.27 0.917222,-1.658056 0.3175,-1.058333 4.092222,-4.7625 5.221111,-5.150555 0.564445,-0.211667 0.987778,-0.493889 0.987778,-0.635 0,-0.176389 1.164167,-0.740834 2.575278,-1.27 5.326944,-2.010834 8.537222,-3.351389 9.066389,-3.81 0.282222,-0.246945 1.27,-0.740834 2.187222,-1.093611 0.917222,-0.352778 1.869722,-0.846667 2.081389,-1.093611 0.211667,-0.282223 0.599722,-0.493889 0.846667,-0.493889 0.246944,0 1.128888,-0.564445 1.975555,-1.199445 1.728611,-1.375833 2.081389,-1.516944 2.081389,-0.740833 z m 95.849716,0.705555 c 0.88195,0.670278 1.79917,1.234723 2.04611,1.234723 0.24695,0 0.635,0.211666 0.84667,0.493889 0.21167,0.246944 1.16417,0.740833 2.08139,1.093611 0.91722,0.352777 1.905,0.846666 2.18722,1.093611 0.52917,0.458611 3.73945,1.799166 9.10167,3.81 1.37583,0.529166 2.54,1.093611 2.54,1.27 0,0.141111 0.42333,0.423333 0.98778,0.635 1.12888,0.388055 4.90361,4.092222 5.22111,5.150555 0.14111,0.388056 0.52916,1.128889 0.91722,1.658056 0.38805,0.493889 0.81139,1.446389 0.98778,2.116669 0.14111,0.67027 0.635,2.39888 1.02305,3.88055 0.59972,2.18722 0.70556,3.28083 0.52917,5.82083 -0.14111,1.72862 -0.45861,3.66889 -0.70556,4.30389 -0.45861,1.16417 -0.49389,1.16417 -2.11666,0.91723 -1.97556,-0.28223 -9.56028,-3.10445 -10.37167,-3.84528 -0.3175,-0.28222 -0.70556,-0.52917 -0.84667,-0.52917 -0.3175,0 -2.8575,-2.01083 -4.93889,-3.88055 -4.05694,-3.66889 -8.18444,-10.618614 -9.66611,-16.22778 -0.70555,-2.575278 -1.83444,-8.643056 -1.83444,-9.701389 0,-0.740833 0.21167,-0.670278 2.01083,0.705555 z M 48.124728,110.51308 c 1.799167,7.16139 2.046112,13.19389 0.740834,19.96722 -0.635,3.52778 -2.8575,8.21972 -6.244167,13.29972 -0.881944,1.30528 -6.773333,6.45584 -8.466667,7.40834 -1.481666,0.81138 -1.516944,0.81138 -2.257777,0.14111 -0.388056,-0.35278 -1.199445,-1.69334 -1.799167,-2.96334 -0.564444,-1.27 -1.164167,-2.54 -1.340556,-2.8575 -0.705555,-1.34055 -1.199444,-7.58472 -0.811388,-10.58333 0.635,-5.15056 2.681111,-8.46667 8.466666,-13.47611 3.316111,-2.89278 8.290278,-8.29028 9.913056,-10.75972 0.493889,-0.81139 1.058333,-1.48167 1.199444,-1.48167 0.141111,0 0.388056,0.59972 0.599722,1.30528 z m 102.764162,0.17639 c 1.62278,2.46944 6.59695,7.86694 9.91306,10.75972 5.78555,5.00944 7.83166,8.32555 8.46666,13.47611 0.38806,2.99861 -0.10583,9.24278 -0.81139,10.58333 -0.17638,0.3175 -0.77611,1.5875 -1.34055,2.8575 -0.59972,1.27 -1.41111,2.61056 -1.79917,2.96334 -0.74083,0.67027 -0.77611,0.67027 -2.25778,-0.14111 -1.69333,-0.9525 -7.58472,-6.10306 -8.46666,-7.40834 -3.38667,-5.08 -5.60917,-9.77194 -6.24417,-13.29972 -1.30528,-6.77333 -1.05833,-12.80583 0.74083,-19.96722 0.21167,-0.70556 0.45862,-1.30528 0.59973,-1.30528 0.14111,0 0.70555,0.67028 1.19944,1.48167 z M -6.2383274,128.11669 c 2.293055,0.98778 8.784167,2.46944 13.123333,2.96333 5.9266674,0.70556 6.9497224,0.98778 8.8547224,2.2225 2.151945,1.37584 4.198056,3.42195 5.009445,5.00945 1.622778,3.10444 2.010833,4.05694 2.54,6.06777 1.093611,4.33917 1.023055,9.34862 -0.141111,9.94834 -1.340556,0.74083 -8.5725,0.35278 -11.500556,-0.59972 -2.4694444,-0.81139 -5.0094444,-1.94028 -6.0677784,-2.75167 -0.599722,-0.45861 -1.27,-0.84667 -1.481666,-0.84667 -0.493889,0 -6.385278,-5.99722 -6.385278,-6.52639 0,-0.24694 -0.352778,-0.88194 -0.740833,-1.37583 -1.763889,-2.25778 -4.727223,-9.525 -5.4327781,-13.37028 -0.2822222,-1.51694 0.1058333,-1.65805 2.2225001,-0.74083 z m 211.9136074,0.74083 c -0.70556,3.84528 -3.66889,11.1125 -5.43278,13.37028 -0.38805,0.49389 -0.74083,1.12889 -0.74083,1.37583 0,0.52917 -5.89139,6.52639 -6.38528,6.52639 -0.21167,0 -0.88194,0.38806 -1.48167,0.84667 -1.05833,0.81139 -3.59833,1.94028 -6.06777,2.75167 -2.92806,0.9525 -10.16,1.34055 -11.50056,0.59972 -1.16417,-0.59972 -1.23472,-5.60917 -0.14111,-9.94834 0.52917,-2.01083 0.91722,-2.96333 2.54,-6.06777 0.81139,-1.5875 2.8575,-3.63361 5.00944,-5.00945 1.905,-1.23472 2.92806,-1.51694 8.85473,-2.2225 4.37444,-0.49389 10.93611,-2.01083 13.05277,-2.96333 0.67028,-0.28222 1.51695,-0.52917 1.905,-0.56445 0.56445,0 0.59973,0.17639 0.38806,1.30528 z M 55.709451,142.15724 c 3.598333,7.37306 4.409722,10.16 4.691944,16.29834 0.176389,3.56305 0.07056,4.90361 -0.599722,8.255 -0.423333,2.18722 -1.164167,4.83305 -1.622778,5.85611 -1.199444,2.71639 -4.515555,7.90222 -5.926667,9.27805 l -1.234722,1.19945 -1.164166,-0.74083 c -0.635,-0.42334 -1.728612,-1.41112 -2.398889,-2.2225 -0.670278,-0.81139 -1.481667,-1.72862 -1.834445,-2.04612 -0.564444,-0.56444 -2.398889,-4.33916 -2.928055,-6.0325 -0.141111,-0.49388 -0.423334,-1.05833 -0.564445,-1.27 -0.176389,-0.24694 -0.423333,-1.27 -0.529166,-2.29305 -0.105834,-1.05833 -0.246945,-2.39889 -0.3175,-2.96333 -0.141112,-1.5875 0.529166,-5.53862 1.093611,-6.35 0.282222,-0.35278 0.493889,-0.91723 0.493889,-1.19945 0,-0.28222 1.340555,-2.68111 2.998611,-5.36222 1.658055,-2.64583 2.998611,-5.04472 2.998611,-5.25639 0,-0.24694 0.458611,-1.27 1.023055,-2.25778 0.564445,-0.98778 1.023056,-1.94028 1.023056,-2.08139 0,-0.17639 0.211667,-0.81139 0.529167,-1.41111 0.282222,-0.635 0.740833,-1.79916 0.987777,-2.61055 0.564445,-2.01084 0.917223,-1.69334 3.280834,3.21027 z m 89.464439,-2.01083 c 0,0.3175 0.3175,1.09361 0.74083,1.72861 0.38806,0.67028 0.635,1.19945 0.49389,1.19945 -0.14111,0 0.24695,0.84666 0.84667,1.905 0.59972,1.02305 1.09361,2.08139 1.09361,2.32833 0,0.21167 1.34056,2.61056 2.99861,5.25639 1.65806,2.68111 2.99861,5.08 2.99861,5.36222 0,0.28222 0.21167,0.84667 0.49389,1.19945 0.56445,0.81138 1.23472,4.7625 1.09361,6.35 -0.0705,0.56444 -0.21166,1.905 -0.3175,2.96333 -0.10583,1.02305 -0.35277,2.04611 -0.52916,2.29305 -0.14111,0.21167 -0.42334,0.77612 -0.56445,1.27 -0.52916,1.69334 -2.36361,5.46806 -2.92805,6.0325 -0.35278,0.3175 -1.16417,1.23473 -1.83445,2.04612 -0.67028,0.81138 -1.76389,1.79916 -2.39889,2.2225 l -1.16416,0.74083 -1.23473,-1.19945 c -1.41111,-1.37583 -4.72722,-6.56166 -5.92666,-9.27805 -0.45861,-1.02306 -1.19945,-3.66889 -1.62278,-5.85611 -1.27,-6.35 -0.635,-13.79361 1.5875,-19.22639 1.12889,-2.71639 3.81,-8.11389 4.51556,-9.13695 l 0.70555,-0.98777 0.45861,1.12889 c 0.28222,0.635 0.49389,1.37583 0.49389,1.65805 z m -70.273328,22.57778 c 1.975555,2.11667 3.81,4.05694 4.056944,4.37444 0.987778,1.12889 4.092218,6.56167 4.656668,8.07861 0.3175,0.88195 0.74083,1.905 0.91722,2.29306 0.17639,0.38806 0.49389,1.55222 0.67028,2.57528 0.17639,1.05833 0.42333,2.01083 0.52917,2.18722 0.17638,0.28222 0.635,5.53861 0.59972,6.52639 -0.0353,0.17639 -0.0706,0.91722 -0.0706,1.5875 -0.0705,1.5875 -2.01083,9.31333 -2.75166,11.00667 -0.3175,0.74083 -0.77612,1.37583 -1.02306,1.48166 -0.45861,0.17639 -2.998611,-0.42333 -3.280833,-0.81139 -0.282223,-0.35277 -1.516945,-1.09361 -2.187223,-1.30527 -0.352777,-0.14112 -0.635,-0.35278 -0.635,-0.52917 0,-0.17639 -0.211666,-0.3175 -0.458611,-0.3175 -0.458611,0 -3.069166,-2.68111 -5.044722,-5.15056 -1.375833,-1.72861 -3.175,-5.53861 -3.527778,-7.37305 -0.635,-3.38667 -0.423333,-5.92667 0.811389,-10.93611 1.5875,-6.35 2.293056,-11.04195 2.328334,-15.45167 0,-1.30528 0.141111,-2.01083 0.423333,-2.01083 0.211667,0 2.010833,1.69333 3.986389,3.77472 z m 51.823048,-1.76389 c 0.0353,4.40972 0.74084,9.10167 2.32834,15.45167 2.39889,9.59555 1.16416,14.2875 -5.53861,21.59 -0.98778,1.02305 -1.97556,1.86972 -2.2225,1.86972 -0.24695,0 -0.45862,0.14111 -0.45862,0.3175 0,0.17639 -0.28222,0.38805 -0.59972,0.52917 -0.70555,0.21166 -1.94028,0.9525 -2.2225,1.30527 -0.28222,0.38806 -2.82222,0.98778 -3.28083,0.81139 -0.24695,-0.10583 -0.70556,-0.74083 -1.02306,-1.48166 -0.74083,-1.69334 -2.68111,-9.41917 -2.75166,-11.00667 0,-0.67028 -0.0353,-1.41111 -0.0706,-1.5875 -0.0353,-0.98778 0.42333,-6.24417 0.59972,-6.52639 0.10584,-0.17639 0.35278,-1.12889 0.52917,-2.18722 0.17639,-1.02306 0.49389,-2.18722 0.67028,-2.57528 0.17639,-0.38806 0.59972,-1.41111 0.91722,-2.29306 0.56444,-1.51694 3.66889,-6.94972 4.65667,-8.07861 1.86972,-2.25777 7.72583,-8.14916 8.04333,-8.14916 0.28222,0 0.42333,0.70555 0.42333,2.01083 z m -96.87277,9.06639 c 3.4925,0.84667 7.337777,3.88055 9.771944,7.79639 1.164167,1.86972 1.622778,2.78694 2.892778,5.99722 0.176389,0.38806 0.388055,1.44639 0.493889,2.36361 0.211666,1.905 0.105833,2.01083 -3.139723,3.175 -2.469444,0.91722 -4.691944,1.16417 -9.348611,1.12889 -3.563055,-0.0353 -4.445,-0.17639 -7.267222,-1.12889 -5.573889,-1.86972 -10.865555,-5.99722 -15.0283334,-11.71222 -1.834445,-2.50472 -3.81,-5.715 -3.81,-6.13833 0,-0.14112 1.622778,-0.21167 3.633611,-0.17639 4.3744444,0.0705 9.7719444,-0.28223 11.7122224,-0.81139 3.739445,-0.98778 7.267222,-1.16417 10.089445,-0.49389 z m 147.03777,0.38805 c 2.46945,0.59973 7.62,1.02306 12.31195,0.91723 1.97555,-0.0353 3.59833,0.0353 3.59833,0.17639 0,0.42333 -1.97555,3.63361 -3.81,6.13833 -4.16278,5.715 -9.45444,9.8425 -15.02833,11.71222 -2.82222,0.9525 -3.70417,1.09361 -7.26722,1.12889 -4.65667,0.0353 -6.87917,-0.21167 -9.34862,-1.12889 -3.24555,-1.16417 -3.35138,-1.27 -3.13972,-3.175 0.10584,-0.91722 0.3175,-1.97555 0.49389,-2.36361 1.27,-3.21028 1.72861,-4.1275 2.89278,-5.99722 2.36361,-3.77472 6.24417,-6.91445 9.63083,-7.79639 2.08139,-0.52917 6.80861,-0.35278 9.66611,0.38805 z M 62.094728,197.33169 c 1.375834,0.28222 2.716389,0.74083 3.033889,0.98778 0.282223,0.28222 0.740834,0.49389 0.9525,0.49389 0.846667,0 3.316111,1.83444 5.644445,4.19805 2.998611,3.06917 3.033889,3.10445 3.986389,5.29167 l 0.776111,1.83444 -1.164167,1.02306 c -0.670278,0.59972 -1.305278,1.05833 -1.411111,1.05833 -0.141111,0 -0.670278,0.38806 -1.199444,0.88195 -0.529167,0.49388 -1.199445,0.88194 -1.481667,0.88194 -0.282222,0 -1.093611,0.35278 -1.834445,0.81139 -1.234722,0.77611 -3.527777,1.55222 -6.596944,2.29305 -3.351389,0.81139 -11.571111,-0.0705 -14.2875,-1.51694 -0.493889,-0.28222 -1.940278,-0.98778 -3.245556,-1.62278 -1.305277,-0.59972 -2.575277,-1.34055 -2.786944,-1.5875 -0.211667,-0.28222 -0.635,-0.49389 -0.881944,-0.49389 -0.282223,0 -0.493889,-0.14111 -0.493889,-0.28222 0,-0.14111 -0.529167,-0.56444 -1.128889,-0.9525 -0.635,-0.35278 -1.234722,-0.74083 -1.340556,-0.88194 -0.105833,-0.10584 -1.164166,-1.05834 -2.398889,-2.11667 l -2.2225,-1.905 3.457223,-0.9525 c 3.880555,-1.02306 8.466666,-2.92806 13.687777,-5.64444 4.621389,-2.39889 6.702778,-2.71639 10.936111,-1.79917 z m 83.714162,1.72861 c 5.57389,2.82222 10.05417,4.69194 13.93472,5.715 l 3.45723,0.9525 -2.2225,1.905 c -1.23473,1.05833 -2.29306,2.01083 -2.39889,2.11667 -0.10584,0.14111 -0.70556,0.52916 -1.30528,0.88194 -0.635,0.38806 -1.16417,0.81139 -1.16417,0.9525 0,0.14111 -0.21166,0.28222 -0.49389,0.28222 -0.24694,0 -0.67027,0.21167 -0.88194,0.49389 -0.21167,0.24695 -1.48167,0.98778 -2.78695,1.5875 -1.30527,0.635 -2.75166,1.34056 -3.24555,1.62278 -2.71639,1.44639 -10.93611,2.32833 -14.2875,1.51694 -3.06917,-0.74083 -5.36222,-1.51694 -6.59695,-2.29305 -0.74083,-0.45861 -1.55222,-0.81139 -1.83444,-0.81139 -0.28222,0 -0.9525,-0.38806 -1.48167,-0.88194 -0.52916,-0.49389 -1.05833,-0.88195 -1.19944,-0.88195 -0.10583,0 -0.74083,-0.45861 -1.41111,-1.05833 l -1.16417,-1.02306 0.77611,-1.83444 c 0.9525,-2.18722 0.98778,-2.2225 3.98639,-5.29167 2.36361,-2.39889 4.79778,-4.19805 5.67972,-4.19805 0.24695,0 0.67028,-0.21167 0.88195,-0.45862 0.88194,-0.84666 4.72722,-1.5875 7.40833,-1.41111 2.25778,0.14111 3.03389,0.42334 6.35,2.11667 z"
       id="path1"
       style="display:none;opacity:1;fill:#000000;stroke:none;stroke-width:0.0352778" /><g
       id="g2"><path
         style="opacity:1;fill:#38b263;fill-opacity:1;stroke-width:0.264583"
         d="m 166.07521,166.81538 c 0.1005,-0.0177 0.17759,-0.0561 0.2302,-0.0919 4.01266,-2.98422 9.81649,-17.67307 1.80821,-24.38609 -6.61725,-5.54698 -9.18588,-6.9416 -16.59196,-17.87718 -0.10121,-0.14944 -0.1864,-0.27534 -0.32773,-0.2695 -0.14133,0.006 -0.14663,0.0973 -0.20116,0.24469 -2.42556,6.55484 -6.68951,30.06466 14.56764,42.24727 0.22763,0.10036 0.38326,0.16031 0.5148,0.13271 z"
         id="path2-7"
         sodipodi:nodetypes="ccsszscc" /><path
         style="fill:#38b263;fill-opacity:1;stroke-width:0.264583"
         d="m 175.78021,130.18006 c 0.0883,-0.0511 0.14745,-0.11376 0.18454,-0.16546 2.74152,-4.18223 3.13943,-19.9711 -6.68911,-23.52035 -8.12133,-2.93275 -11.01291,-3.35888 -21.72823,-11.080209 -0.14642,-0.105517 -0.26972,-0.194437 -0.40042,-0.140344 -0.13064,0.05424 -0.10423,0.141792 -0.10477,0.298945 -0.0232,6.989188 4.0586,30.531308 28.20891,34.659858 0.24826,0.0159 0.41501,0.0188 0.52904,-0.0525 z"
         id="path2-7-1"
         sodipodi:nodetypes="ccsszscc" /><path
         style="fill:#38b263;fill-opacity:1;stroke-width:0.264583"
         d="m 172.80584,94.174048 c 0.0657,-0.07809 0.1,-0.157116 0.11729,-0.218344 1.15632,-4.865177 -3.8375,-19.848797 -14.28725,-19.845038 -8.63465,0.0031 -11.49886,0.585466 -24.20102,-3.032833 -0.17356,-0.04945 -0.31975,-0.09116 -0.42428,0.0042 -0.10442,0.09542 -0.0498,0.168781 0.004,0.316746 2.35442,6.580727 14.1971,27.33269 38.31242,23.0045 0.23888,-0.06945 0.39669,-0.123418 0.47968,-0.229239 z"
         id="path2-7-1-2"
         sodipodi:nodetypes="ccsszscc"
         inkscape:transform-center-x="1.0667309"
         inkscape:transform-center-y="2.7880534" /><path
         style="fill:#38b263;fill-opacity:1;stroke-width:0.264583"
         d="m 147.81095,197.79648 c 0.10131,0.0124 0.1862,-0.002 0.2469,-0.0218 4.70511,-1.69382 14.51527,-14.07153 8.79507,-22.81662 -4.72654,-7.22613 -6.78111,-9.305 -10.70171,-21.91713 -0.0535,-0.17237 -0.0986,-0.31755 -0.23547,-0.35296 -0.13698,-0.0352 -0.16853,0.0507 -0.26295,0.17663 -4.22041,5.57113 -15.11204,26.83765 1.70445,44.65584 0.18886,0.16193 0.32033,0.26454 0.45431,0.2761 z"
         id="path2-7-1-2-7"
         sodipodi:nodetypes="ccsszscc"
         inkscape:transform-center-x="1.0883424"
         inkscape:transform-center-y="0.32974747" /><path
         style="fill:#38b263;fill-opacity:1;stroke-width:0.264583"
         d="m 115.79847,217.36671 c 0.092,0.0441 0.17707,0.0576 0.24092,0.0583 4.99969,-0.101 18.25164,-8.69361 15.62684,-18.80833 -2.16879,-8.35784 -3.45108,-10.98438 -3.13462,-24.18804 0.004,-0.18044 0.008,-0.33241 -0.11031,-0.40971 -0.11855,-0.0771 -0.1759,-0.006 -0.30562,0.0833 -5.77977,3.92984 -22.89771,20.59924 -12.6589,42.85792 0.12719,0.21381 0.21897,0.35306 0.34222,0.40684 z"
         id="path2-7-1-2-7-8"
         sodipodi:nodetypes="ccsszscc"
         inkscape:transform-center-x="2.6031796"
         inkscape:transform-center-y="-0.52344592" /><path
         style="fill:#38b263;fill-opacity:1;stroke-width:0.264583"
         d="m 122.30423,226.05904 c -0.032,-0.097 -0.0344,-0.18299 -0.0269,-0.24641 0.74109,-4.94549 10.9616,-16.9866 20.65639,-13.08682 8.01085,3.2223 10.45136,4.8307 23.58665,6.20946 0.17945,0.0191 0.33068,0.0348 0.39218,0.16193 0.0612,0.12745 -0.0166,0.17521 -0.12181,0.29242 -4.63834,5.2283 -23.36458,20.06813 -44.12707,7.0604 -0.19575,-0.15354 -0.32208,-0.26241 -0.35963,-0.39154 z"
         id="path2-7-1-2-7-8-1"
         sodipodi:nodetypes="ccsszscc"
         inkscape:transform-center-x="-0.19065921"
         inkscape:transform-center-y="1.9030331" /><path
         style="fill:#38b263;fill-opacity:1;stroke-width:0.264583"
         d="m 156.19551,203.69228 c -0.0574,-0.0845 -0.0832,-0.16655 -0.0934,-0.2296 -0.64258,-4.95926 5.88686,-19.34027 16.27922,-18.24659 8.58722,0.90364 11.37507,1.78162 24.38535,-0.49206 0.17781,-0.0307 0.32755,-0.0572 0.42152,0.0484 0.0938,0.10584 0.0321,0.17305 -0.0369,0.31462 -3.02798,6.29925 -16.97055,25.7028 -40.50288,18.8829 -0.23034,-0.094 -0.38167,-0.1641 -0.45317,-0.278 z"
         id="path2-7-1-2-7-8-1-2"
         sodipodi:nodetypes="ccsszscc"
         inkscape:transform-center-x="-0.87565475"
         inkscape:transform-center-y="3.3348777" /><path
         style="fill:#38b263;fill-opacity:1;stroke-width:0.264583"
         d="m 175.58141,170.38954 c -0.0796,-0.0641 -0.1282,-0.135 -0.15636,-0.19233 -2.0625,-4.55557 -0.0162,-20.21635 10.24263,-22.20449 8.4769,-1.64287 11.39962,-1.61709 23.17922,-7.59021 0.1611,-0.0813 0.29658,-0.15034 0.41728,-0.0768 0.12062,0.0738 0.0812,0.15614 0.0566,0.31169 -1.05691,6.90885 -8.72691,29.53768 -33.22509,29.88546 -0.24775,-0.0226 -0.41295,-0.0455 -0.51459,-0.13358 z"
         id="path2-7-1-2-7-8-1-2-9"
         sodipodi:nodetypes="ccsszscc"
         inkscape:transform-center-x="-1.2177356"
         inkscape:transform-center-y="2.1902678" /><path
         style="fill:#38b263;fill-opacity:1;stroke-width:0.264583"
         d="m 185.82827,129.25857 c -0.0954,-0.0365 -0.16348,-0.0891 -0.2079,-0.13497 -3.36264,-3.70132 -6.22802,-19.23311 2.92348,-24.27765 7.56186,-4.16836 10.35107,-5.041985 19.72511,-14.345988 0.12833,-0.126849 0.23603,-0.234204 0.3735,-0.201294 0.13747,0.03321 0.12527,0.123622 0.14961,0.279221 1.11734,6.899332 0.77241,30.790211 -22.43346,38.649551 -0.24272,0.0546 -0.40696,0.0836 -0.53074,0.031 z"
         id="path2-7-1-2-7-8-1-2-2"
         sodipodi:nodetypes="ccsszscc"
         inkscape:transform-center-x="-0.71866917"
         inkscape:transform-center-y="1.5501546" /><path
         style="fill:#38b263;fill-opacity:1;stroke-width:0.264583"
         d="m 181.46833,90.664787 c -0.10214,-0.0014 -0.18416,-0.02725 -0.24168,-0.05502 -4.4325,-2.315202 -12.47662,-15.907076 -5.62516,-23.797241 5.66132,-6.519693 7.97838,-8.301316 13.57034,-20.266559 0.0767,-0.163313 0.14082,-0.301215 0.28121,-0.317714 0.14049,-0.01622 0.16021,0.07286 0.23669,0.210528 3.42731,6.091203 11.33961,28.636458 -7.7343,44.013949 -0.20903,0.134906 -0.3532,0.218756 -0.48751,0.212084 z"
         id="path2-7-1-2-7-8-1-2-0"
         sodipodi:nodetypes="ccsszscc"
         inkscape:transform-center-x="-0.73185906"
         inkscape:transform-center-y="0.68776272" /><path
         style="fill:#38b263;fill-opacity:1;stroke-width:0.264583"
         d="m 163.26658,63.815878 c -25.57843,-0.006 -27.52396,-20.433449 -28.29432,-30.243833 -0.004,-0.04899 0.008,-0.08479 0.04,-0.08953 0.0321,-0.0047 0.0743,0.0382 0.0743,0.0382 7.3648,8.752688 23.75023,0.953531 29.07097,28.230802 0,0 0.28813,1.404521 0.0294,1.759709 -0.25871,0.355188 -0.92043,0.30464 -0.92043,0.30464 z"
         id="path2-7-1-2-7-8-1-2-0-6"
         sodipodi:nodetypes="cszcczcc"
         inkscape:transform-center-x="1.9914259"
         inkscape:transform-center-y="1.13889" /><path
         style="fill:#38b263;fill-opacity:1;stroke-width:0.264583"
         d="m 34.33668,166.53038 c -0.1005,-0.0177 -0.17759,-0.0561 -0.2302,-0.0919 -4.01266,-2.98422 -9.81649,-17.67307 -1.80821,-24.38609 6.61725,-5.54698 9.18588,-6.9416 16.59196,-17.87718 0.10121,-0.14944 0.1864,-0.27534 0.32773,-0.2695 0.14133,0.006 0.14663,0.0973 0.20116,0.24469 2.42556,6.55484 6.68951,30.06466 -14.56764,42.24727 -0.22763,0.10036 -0.38326,0.16031 -0.5148,0.13271 z"
         id="path2-7-0"
         sodipodi:nodetypes="ccsszscc" /><path
         style="fill:#38b263;fill-opacity:1;stroke-width:0.264583"
         d="m 24.63168,129.89506 c -0.0883,-0.0511 -0.14745,-0.11376 -0.18454,-0.16546 -2.74152,-4.18223 -3.13943,-19.97111 6.68911,-23.52036 8.12133,-2.93274 11.01291,-3.35887 21.72823,-11.080202 0.14642,-0.10552 0.26972,-0.19444 0.40042,-0.14035 0.13064,0.0542 0.10423,0.1418 0.10477,0.29895 0.0232,6.989182 -4.0586,30.531312 -28.20891,34.659862 -0.24826,0.0159 -0.41501,0.0188 -0.52904,-0.0525 z"
         id="path2-7-1-1"
         sodipodi:nodetypes="ccsszscc" /><path
         style="fill:#38b263;fill-opacity:1;stroke-width:0.264583"
         d="m 27.60605,93.889038 c -0.0657,-0.0781 -0.1,-0.15711 -0.11729,-0.21834 -1.15632,-4.86518 3.8375,-19.8488 14.28725,-19.84504 8.63465,0.003 11.49886,0.58547 24.20102,-3.03283 0.17356,-0.0494 0.31975,-0.0912 0.42428,0.004 0.10442,0.0954 0.0498,0.16878 -0.004,0.31675 -2.35442,6.58072 -14.1971,27.33269 -38.31242,23.0045 -0.23888,-0.0695 -0.39669,-0.12342 -0.47968,-0.22924 z"
         id="path2-7-1-2-0"
         sodipodi:nodetypes="ccsszscc"
         inkscape:transform-center-x="-1.0667313"
         inkscape:transform-center-y="2.7880534" /><path
         style="fill:#38b263;fill-opacity:1;stroke-width:0.264583"
         d="m 52.60094,197.51148 c -0.10131,0.0124 -0.1862,-0.002 -0.2469,-0.0218 -4.70511,-1.69382 -14.51527,-14.07153 -8.79507,-22.81662 4.72654,-7.22613 6.78111,-9.305 10.70171,-21.91713 0.0535,-0.17237 0.0986,-0.31755 0.23547,-0.35296 0.13698,-0.0352 0.16853,0.0507 0.26295,0.17663 4.22041,5.57113 15.11204,26.83765 -1.70445,44.65584 -0.18886,0.16193 -0.32033,0.26454 -0.45431,0.2761 z"
         id="path2-7-1-2-7-1"
         sodipodi:nodetypes="ccsszscc"
         inkscape:transform-center-x="-1.0883428"
         inkscape:transform-center-y="0.32974747" /><path
         style="fill:#38b263;fill-opacity:1;stroke-width:0.264583"
         d="m 84.613417,217.08171 c -0.092,0.0441 -0.17707,0.0576 -0.24092,0.0583 -4.99969,-0.101 -18.251637,-8.69361 -15.626837,-18.80833 2.16879,-8.35784 3.45108,-10.98438 3.13462,-24.18804 -0.004,-0.18044 -0.008,-0.33241 0.11031,-0.40971 0.11855,-0.0771 0.1759,-0.006 0.30562,0.0833 5.779767,3.92984 22.897707,20.59924 12.658897,42.85792 -0.12719,0.21381 -0.21897,0.35306 -0.34222,0.40684 z"
         id="path2-7-1-2-7-8-9"
         sodipodi:nodetypes="ccsszscc"
         inkscape:transform-center-x="-2.6031785"
         inkscape:transform-center-y="-0.52344592" /><path
         style="fill:#38b263;fill-opacity:1;stroke-width:0.264583"
         d="m 78.107657,225.77404 c 0.032,-0.097 0.0344,-0.18299 0.0269,-0.24641 -0.74109,-4.94549 -10.961597,-16.9866 -20.656387,-13.08682 -8.01085,3.2223 -10.45136,4.8307 -23.58665,6.20946 -0.17945,0.0191 -0.33068,0.0348 -0.39218,0.16193 -0.0612,0.12745 0.0166,0.17521 0.12181,0.29242 4.63834,5.2283 23.36458,20.06813 44.127067,7.0604 0.19575,-0.15354 0.32208,-0.26241 0.35963,-0.39154 z"
         id="path2-7-1-2-7-8-1-1"
         sodipodi:nodetypes="ccsszscc"
         inkscape:transform-center-x="0.19066029"
         inkscape:transform-center-y="1.9030331" /><path
         style="fill:#38b263;fill-opacity:1;stroke-width:0.264583"
         d="m 44.21638,203.40728 c 0.0574,-0.0845 0.0832,-0.16655 0.0934,-0.2296 0.64258,-4.95926 -5.88686,-19.34027 -16.27922,-18.24659 -8.58722,0.90364 -11.37507,1.78162 -24.3853515,-0.49206 -0.17781,-0.0307 -0.32755,-0.0572 -0.42152,0.0484 -0.0938,0.10584 -0.0321,0.17305 0.0369,0.31462 3.027982,6.29925 16.9705515,25.7028 40.5028815,18.8829 0.23034,-0.094 0.38167,-0.1641 0.45317,-0.278 z"
         id="path2-7-1-2-7-8-1-2-8"
         sodipodi:nodetypes="ccsszscc"
         inkscape:transform-center-x="0.87565433"
         inkscape:transform-center-y="3.3348777" /><path
         style="fill:#38b263;fill-opacity:1;stroke-width:0.264583"
         d="m 24.83048,170.10454 c 0.0796,-0.0641 0.1282,-0.135 0.15636,-0.19233 2.0625,-4.55557 0.0162,-20.21635 -10.24263,-22.20449 -8.4768995,-1.64287 -11.3996215,-1.61709 -23.1792214,-7.59021 -0.1611003,-0.0813 -0.2965803,-0.15034 -0.4172803,-0.0768 -0.12062,0.0738 -0.0812,0.15614 -0.0566,0.31169 1.0569102,6.90885 8.72691025,29.53768 33.2250917,29.88546 0.24775,-0.0226 0.41295,-0.0455 0.51459,-0.13358 z"
         id="path2-7-1-2-7-8-1-2-9-2"
         sodipodi:nodetypes="ccsszscc"
         inkscape:transform-center-x="1.2177352"
         inkscape:transform-center-y="2.1902678" /><path
         style="fill:#38b263;fill-opacity:1;stroke-width:0.264583"
         d="m 14.58362,128.97357 c 0.0954,-0.0365 0.16348,-0.0891 0.2079,-0.13497 3.36264,-3.70132 6.22802,-19.23312 -2.92348,-24.27765 -7.5618615,-4.16836 -10.3510714,-5.041992 -19.7251115,-14.345992 -0.12833,-0.12685 -0.23603,-0.23421 -0.3734999,-0.20129 -0.13747,0.0332 -0.12527,0.12362 -0.14961,0.27922 -1.1173403,6.89933 -0.7724103,30.790212 22.4334614,38.649552 0.24272,0.0546 0.40696,0.0836 0.53074,0.031 z"
         id="path2-7-1-2-7-8-1-2-2-4"
         sodipodi:nodetypes="ccsszscc"
         inkscape:transform-center-x="0.71866875"
         inkscape:transform-center-y="1.5501546" /><path
         style="fill:#38b263;fill-opacity:1;stroke-width:0.264583"
         d="m 18.94356,90.379778 c 0.10214,-0.001 0.18416,-0.0272 0.24168,-0.055 4.4325,-2.3152 12.47662,-15.90707 5.62516,-23.79724 -5.66132,-6.51969 -7.97838,-8.30131 -13.570339,-20.26656 -0.0767,-0.16331 -0.14082,-0.30121 -0.28121,-0.31771 -0.14049,-0.0162 -0.16021,0.0729 -0.23669,0.21053 -3.4273105,6.0912 -11.33961245,28.63646 7.734299,44.01395 0.20903,0.1349 0.3532,0.21875 0.48751,0.21208 z"
         id="path2-7-1-2-7-8-1-2-0-7"
         sodipodi:nodetypes="ccsszscc"
         inkscape:transform-center-x="0.73185864"
         inkscape:transform-center-y="0.68776272" /><path
         style="fill:#38b263;fill-opacity:1;stroke-width:0.264583"
         d="m 37.14531,63.530868 c 25.57843,-0.006 27.52396,-20.43344 28.29432,-30.24383 0.004,-0.049 -0.008,-0.0848 -0.04,-0.0895 -0.0321,-0.005 -0.0743,0.0382 -0.0743,0.0382 -7.3648,8.75269 -23.75023,0.95353 -29.07097,28.2308 0,0 -0.28813,1.40453 -0.0294,1.75971 0.25871,0.35519 0.92043,0.30464 0.92043,0.30464 z"
         id="path2-7-1-2-7-8-1-2-0-6-4"
         sodipodi:nodetypes="cszcczcc"
         inkscape:transform-center-x="-1.9914263"
         inkscape:transform-center-y="1.13889" /></g></g></svg>
