<?xml version="1.0" encoding="UTF-8" standalone="no"?>
<svg xmlns="http://www.w3.org/2000/svg" xmlns:xlink="http://www.w3.org/1999/xlink" class="card" face="2C" height="3.5in" preserveAspectRatio="none" viewBox="-120 -168 240 336" width="2.5in"><defs><symbol id="SC2" viewBox="-600 -600 1200 1200" preserveAspectRatio="xMinYMid"><path d="M-100 500L100 500L100 340A260 260 0 1 0 200 -150A230 230 0 1 0 -200 -150A260 260 0 1 0 -100 340Z" fill="#272d42"></path></symbol><symbol id="VC2" viewBox="-500 -500 1000 1000" preserveAspectRatio="xMinYMid"><path d="M-225 -225C-245 -265 -200 -460 0 -460C 200 -460 225 -325 225 -225C225 -25 -225 160 -225 460L225 460L225 300" stroke="#272d42" stroke-width="80" stroke-linecap="square" stroke-miterlimit="1.5" fill="none"></path></symbol></defs><use xlink:href="#VC2" height="32" width="32" x="-114.4" y="-156"></use><use xlink:href="#SC2" height="26.032" width="26.032" x="-111.416" y="-119"></use><use xlink:href="#SC2" height="70" width="70" x="-35" y="-135.676"></use><g transform="rotate(180)"><use xlink:href="#VC2" height="32" width="32" x="-114.4" y="-156"></use><use xlink:href="#SC2" height="26.032" width="26.032" x="-111.416" y="-119"></use><use xlink:href="#SC2" height="70" width="70" x="-35" y="-135.676"></use></g></svg>