<svg width="1749" height="2294" viewBox="0 0 1749 2294" fill="none" xmlns="http://www.w3.org/2000/svg">
<path d="M1509.3 1405.15C1703.22 1364.4 1685.3 1205.66 1675.46 1129.69C1675.41 1129.31 1675.26 1129.05 1675.01 1129.07C1674.76 1129.08 1674.51 1129.48 1674.51 1129.48C1632.67 1207.89 1495.97 1174.53 1499.24 1390.84C1499.24 1390.84 1499.31 1402 1501.84 1404.29C1504.36 1406.58 1509.3 1405.15 1509.3 1405.15Z" fill="#38B263"/>
<path d="M37.9651 894.161C236.117 894.114 251.189 735.078 257.157 658.7C257.188 658.318 257.095 658.04 256.847 658.003C256.598 657.964 256.271 658.301 256.271 658.301C199.217 726.444 72.282 665.724 31.0631 878.089C31.0631 878.089 28.831 889.024 30.8353 891.79C32.8395 894.555 37.9651 894.161 37.9651 894.161Z" fill="#38B263"/>
<path d="M435.033 1359.56C450.993 1162.05 293.694 1134.18 218.047 1122.06C217.67 1122 217.385 1122.07 217.328 1122.31C217.271 1122.56 217.578 1122.91 217.578 1122.91C280.889 1185.28 210.114 1306.9 418.456 1365.14C418.456 1365.14 429.174 1368.25 432.093 1366.47C435.011 1364.7 435.033 1359.56 435.033 1359.56Z" fill="#38B263"/>
<path d="M1618.4 334.335C1586.42 138.781 1427.03 149.538 1350.69 155.958C1350.31 155.988 1350.05 156.125 1350.05 156.376C1350.06 156.627 1350.44 156.896 1350.44 156.896C1426.89 202.221 1387.42 337.284 1603.65 343.737C1603.65 343.737 1614.8 344.178 1617.21 341.754C1619.62 339.33 1618.4 334.335 1618.4 334.335Z" fill="#38B263"/>
<path d="M1731.03 795.558C1746.99 598.05 1589.69 570.181 1514.05 558.062C1513.67 558.001 1513.38 558.071 1513.33 558.315C1513.27 558.56 1513.58 558.913 1513.58 558.913C1576.89 621.285 1506.11 742.9 1714.46 801.14C1714.46 801.14 1725.17 804.248 1728.09 802.473C1731.01 800.699 1731.03 795.558 1731.03 795.558Z" fill="#38B263"/>
<path d="M229.537 1987.83C283.006 1797.03 133.949 1739.57 62.0204 1713.19C61.6615 1713.06 61.368 1713.08 61.2656 1713.3C61.1632 1713.53 61.3964 1713.94 61.3964 1713.94C111.6 1787.28 18.8557 1893.1 212.198 1990.14C212.198 1990.14 222.124 1995.24 225.328 1994.06C228.532 1992.87 229.537 1987.83 229.537 1987.83Z" fill="#38B263"/>
<path d="M1428.66 2101.91C1524.39 2275.41 1670.93 2211.81 1740.7 2180.16C1741.05 2180 1741.25 2179.79 1741.16 2179.55C1741.07 2179.32 1740.62 2179.19 1740.62 2179.19C1653.4 2162.13 1645.28 2021.66 1439.41 2088.11C1439.41 2088.11 1428.75 2091.43 1427.3 2094.52C1425.84 2097.61 1428.66 2101.91 1428.66 2101.91Z" fill="#38B263"/>
<path d="M1022.2 236.161C824.045 236.114 808.974 77.0779 803.006 0.699838C802.975 0.31843 803.068 0.0397041 803.316 0.00280113C803.564 -0.0337904 803.891 0.300207 803.891 0.300207C860.945 68.4436 987.881 7.72388 1029.1 220.089C1029.1 220.089 1031.33 231.024 1029.33 233.789C1027.32 236.554 1022.2 236.161 1022.2 236.161Z" fill="#38B263"/>
</svg>
