<svg width="1302" height="2203" viewBox="0 0 1302 2203" fill="none" xmlns="http://www.w3.org/2000/svg">
<path d="M740.198 744.161C542.045 744.114 526.974 585.078 521.006 508.7C520.975 508.318 521.068 508.04 521.316 508.003C521.564 507.966 521.891 508.3 521.891 508.3C578.945 576.444 705.881 515.724 747.1 728.089C747.1 728.089 749.332 739.024 747.327 741.789C745.323 744.554 740.198 744.161 740.198 744.161Z" fill="#38B263"/>
<path d="M991.228 1880.41C1170.85 1964.09 1251.7 1826.31 1289.38 1759.61C1289.57 1759.27 1289.6 1758.98 1289.39 1758.84C1289.18 1758.71 1288.74 1758.87 1288.74 1758.87C1208.24 1796.53 1118.84 1687.86 991.762 1862.93C991.762 1862.93 985.119 1871.9 985.767 1875.25C986.416 1878.61 991.228 1880.41 991.228 1880.41Z" fill="#38B263"/>
<path d="M1087.3 947.147C1281.22 906.403 1263.3 747.662 1253.46 671.686C1253.41 671.306 1253.26 671.053 1253.01 671.068C1252.76 671.083 1252.51 671.477 1252.51 671.477C1210.67 749.886 1073.97 716.532 1077.24 932.835C1077.24 932.835 1077.31 943.995 1079.84 946.29C1082.36 948.585 1087.3 947.147 1087.3 947.147Z" fill="#38B263"/>
<path d="M697.752 1503.57C890.513 1549.48 942.057 1398.27 965.576 1325.36C965.694 1325 965.669 1324.71 965.436 1324.61C965.203 1324.52 964.807 1324.77 964.807 1324.77C893.505 1377.82 784.113 1289.32 694.766 1486.33C694.766 1486.33 690.059 1496.45 691.367 1499.61C692.675 1502.76 697.752 1503.57 697.752 1503.57Z" fill="#38B263"/>
<path d="M682.365 1971.3C489.701 1924.99 437.84 2076.08 414.169 2148.95C414.05 2149.31 414.075 2149.6 414.307 2149.7C414.541 2149.79 414.937 2149.54 414.937 2149.54C486.35 2096.64 595.557 2185.37 685.315 1988.54C685.315 1988.54 690.044 1978.43 688.742 1975.27C687.44 1972.12 682.365 1971.3 682.365 1971.3Z" fill="#38B263"/>
<path d="M7.96518 236.161C206.117 236.114 221.189 77.078 227.157 0.699935C227.188 0.318449 227.095 0.0397275 226.847 0.00313597C226.598 -0.0357912 226.271 0.300542 226.271 0.300542C169.218 68.444 42.2821 7.72419 1.06313 220.089C1.06313 220.089 -1.16897 231.024 0.835376 233.79C2.83956 236.555 7.96518 236.161 7.96518 236.161Z" fill="#38B263"/>
</svg>
