<svg width="48" height="48" viewBox="0 0 48 48" fill="none" xmlns="http://www.w3.org/2000/svg">
<g clip-path="url(#clip0_97_95)">
<path d="M36.75 0H11.25C5.0368 0 0 5.0368 0 11.25V36.75C0 42.9632 5.0368 48 11.25 48H36.75C42.9632 48 48 42.9632 48 36.75V11.25C48 5.0368 42.9632 0 36.75 0Z" fill="#242938"/>
<path d="M15.8896 20.9927C15.8896 21.4491 15.939 21.819 16.0253 22.0905C16.124 22.3618 16.2474 22.6579 16.4201 22.9787C16.4817 23.0773 16.5064 23.1759 16.5064 23.2624C16.5064 23.3858 16.4324 23.5091 16.272 23.6323L15.4949 24.1506C15.3839 24.2244 15.2729 24.2616 15.1742 24.2616C15.0508 24.2616 14.9275 24.1999 14.8041 24.0889C14.6314 23.9038 14.4834 23.7064 14.3601 23.5091C14.2367 23.2993 14.1133 23.0649 13.9776 22.7812C13.0155 23.9162 11.8066 24.4836 10.351 24.4836C9.31482 24.4836 8.48834 24.1875 7.88389 23.5954C7.27945 23.0033 6.97107 22.2139 6.97107 21.2271C6.97107 20.1784 7.34112 19.3273 8.09359 18.6859C8.84607 18.0444 9.84524 17.7237 11.1158 17.7237C11.5352 17.7237 11.9669 17.7607 12.4234 17.8224C12.8798 17.884 13.3485 17.9827 13.842 18.0938V17.1933C13.842 16.2558 13.6446 15.602 13.2622 15.2196C12.8674 14.8372 12.2013 14.6521 11.2515 14.6521C10.8198 14.6521 10.3757 14.7015 9.91924 14.8125C9.46283 14.9235 9.01876 15.0592 8.58702 15.2319C8.38964 15.3183 8.24163 15.3676 8.15526 15.3923C8.06892 15.4169 8.00725 15.4293 7.9579 15.4293C7.78521 15.4293 7.69885 15.3059 7.69885 15.0469V14.4424C7.69885 14.2451 7.72353 14.097 7.78521 14.0107C7.84688 13.9244 7.9579 13.838 8.13061 13.7516C8.56234 13.5296 9.08044 13.3446 9.68487 13.1965C10.2893 13.0362 10.9308 12.9622 11.6092 12.9622C13.0771 12.9622 14.1503 13.2952 14.8411 13.9613C15.5196 14.6275 15.865 15.639 15.865 16.9959V20.9927H15.8896ZM10.8814 22.8677C11.2885 22.8677 11.7079 22.7936 12.152 22.6455C12.5961 22.4976 12.9908 22.2261 13.3239 21.8561C13.5212 21.6218 13.6692 21.3626 13.7433 21.0666C13.8173 20.7705 13.8666 20.4128 13.8666 19.9935V19.4752C13.5089 19.389 13.1265 19.3149 12.7317 19.2656C12.337 19.2163 11.9546 19.1916 11.5722 19.1916C10.7457 19.1916 10.1413 19.3521 9.73422 19.6851C9.32714 20.0181 9.12978 20.4868 9.12978 21.1037C9.12978 21.6834 9.27781 22.1151 9.58619 22.4111C9.88225 22.7196 10.314 22.8677 10.8814 22.8677ZM20.7868 24.1999C20.5648 24.1999 20.4167 24.1628 20.3181 24.0765C20.2194 24.0024 20.133 23.8298 20.0591 23.5954L17.1602 14.06C17.0862 13.8133 17.0492 13.653 17.0492 13.5666C17.0492 13.3692 17.1479 13.2582 17.3452 13.2582H18.5541C18.7884 13.2582 18.9489 13.2952 19.0352 13.3816C19.1338 13.4556 19.2079 13.6283 19.2819 13.8627L21.3542 22.0288L23.2787 13.8627C23.3404 13.6159 23.4143 13.4556 23.5131 13.3816C23.6117 13.3076 23.7844 13.2582 24.0064 13.2582H24.9932C25.2276 13.2582 25.3881 13.2952 25.4867 13.3816C25.5853 13.4556 25.6718 13.6283 25.7211 13.8627L27.6701 22.1274L29.8041 13.8627C29.8781 13.6159 29.9646 13.4556 30.0508 13.3816C30.1494 13.3076 30.3099 13.2582 30.5319 13.2582H31.6791C31.8765 13.2582 31.9875 13.3569 31.9875 13.5666C31.9875 13.6283 31.9751 13.69 31.9628 13.764C31.9506 13.838 31.9258 13.9367 31.8765 14.0724L28.9037 23.6077C28.8296 23.8545 28.7432 24.0148 28.6446 24.0889C28.5459 24.1627 28.3854 24.2123 28.1758 24.2123H27.1149C26.8806 24.2123 26.7203 24.1751 26.6216 24.0889C26.5228 24.0024 26.4366 23.8421 26.3873 23.5954L24.4751 15.639L22.5756 23.583C22.5139 23.8298 22.4398 23.9901 22.3412 24.0765C22.2424 24.1628 22.0697 24.1999 21.8477 24.1999H20.7868ZM36.6381 24.5329C35.9966 24.5329 35.3552 24.4588 34.7383 24.3109C34.1216 24.1628 33.6405 24.0024 33.3197 23.8174C33.1224 23.7064 32.9867 23.583 32.9374 23.472C32.8881 23.361 32.8633 23.2376 32.8633 23.1266V22.4976C32.8633 22.2384 32.9619 22.1151 33.147 22.1151C33.2211 22.1151 33.2951 22.1274 33.369 22.1522C33.4431 22.1767 33.5541 22.2261 33.6774 22.2756C34.0969 22.4604 34.5533 22.6086 35.0344 22.7072C35.5279 22.806 36.0088 22.8553 36.5023 22.8553C37.2795 22.8553 37.8838 22.7196 38.3033 22.4482C38.7227 22.1767 38.9447 21.7821 38.9447 21.2764C38.9447 20.931 38.8337 20.6471 38.6117 20.4127C38.3897 20.1784 37.9703 19.9687 37.3658 19.7713L35.5772 19.2163C34.6766 18.9326 34.0104 18.5131 33.6034 17.9581C33.1963 17.4153 32.9867 16.8109 32.9867 16.1694C32.9867 15.6513 33.0977 15.1949 33.3197 14.8002C33.5417 14.4054 33.8378 14.06 34.2079 13.7887C34.578 13.5049 34.9974 13.2952 35.4908 13.1472C35.9843 12.9992 36.5023 12.9375 37.0451 12.9375C37.3164 12.9375 37.6001 12.9498 37.8716 12.9868C38.1553 13.0238 38.4143 13.0732 38.6734 13.1225C38.9201 13.1842 39.1545 13.2459 39.3765 13.3199C39.5985 13.3939 39.7712 13.4679 39.8946 13.5419C40.0673 13.6406 40.1906 13.7393 40.2647 13.8503C40.3386 13.949 40.3757 14.0847 40.3757 14.2574V14.8372C40.3757 15.0962 40.2771 15.2319 40.092 15.2319C39.9932 15.2319 39.8329 15.1826 39.6233 15.0839C38.9201 14.7632 38.1306 14.6028 37.2548 14.6028C36.5516 14.6028 35.9966 14.7138 35.6141 14.9482C35.2318 15.1826 35.0344 15.5403 35.0344 16.046C35.0344 16.3915 35.1578 16.6875 35.4045 16.9219C35.6511 17.1562 36.1076 17.3906 36.7614 17.6003L38.5131 18.1554C39.4011 18.4391 40.0427 18.8338 40.425 19.3397C40.8073 19.8454 40.9924 20.4251 40.9924 21.0666C40.9924 21.597 40.8814 22.0781 40.6718 22.4976C40.4498 22.917 40.1537 23.2869 39.7712 23.583C39.3889 23.8914 38.9323 24.1134 38.4021 24.2739C37.8469 24.4466 37.2671 24.5329 36.6381 24.5329Z" fill="white"/>
<path fill-rule="evenodd" clip-rule="evenodd" d="M38.9694 30.528C34.911 33.5256 29.0147 35.1169 23.9447 35.1169C16.8395 35.1169 10.4373 32.4892 5.6018 28.1226C5.21941 27.7772 5.56481 27.3084 6.02122 27.5797C11.2515 30.6142 17.703 32.4523 24.3765 32.4523C28.8789 32.4523 33.8256 31.5148 38.3773 29.5905C39.0557 29.2821 39.6354 30.0345 38.9694 30.528Z" fill="#FF9900"/>
<path fill-rule="evenodd" clip-rule="evenodd" d="M40.6594 28.6037C40.1414 27.9375 37.2302 28.2829 35.9102 28.4432C35.5155 28.4927 35.4539 28.1471 35.8116 27.8882C38.1306 26.2599 41.9423 26.7287 42.3865 27.2713C42.8305 27.8265 42.2631 31.6382 40.092 33.4639C39.7589 33.7476 39.4382 33.5994 39.5862 33.2295C40.0797 32.0083 41.1775 29.2573 40.6594 28.6037Z" fill="#FF9900"/>
</g>
<defs>
<clipPath id="clip0_97_95">
<rect width="48" height="48" fill="white"/>
</clipPath>
</defs>
</svg>
