<svg width="48" height="48" viewBox="0 0 48 48" fill="none" xmlns="http://www.w3.org/2000/svg">
<g clip-path="url(#clip0_97_53)">
<g clip-path="url(#clip1_97_53)">
<path d="M36.75 0H11.25C5.0368 0 0 5.0368 0 11.25V36.75C0 42.9632 5.0368 48 11.25 48H36.75C42.9632 48 48 42.9632 48 36.75V11.25C48 5.0368 42.9632 0 36.75 0Z" fill="#242938"/>
<path d="M11.7612 31.3937L16.6031 27.6994C19.1755 31.0433 21.9086 32.5846 24.9508 32.5846C27.9767 32.5846 30.6325 31.0615 33.089 27.744L38 31.3491C34.4555 36.1329 30.0509 38.6606 24.9508 38.6606C19.8669 38.6606 15.4196 36.1491 11.7612 31.3937Z" fill="url(#paint0_linear_97_53)"/>
<path d="M24.9345 15.3368L16.3163 22.7333L12.3326 18.1317L24.9528 7.3002L37.4733 18.1398L33.4713 22.7252L24.9345 15.3368Z" fill="url(#paint1_linear_97_53)"/>
</g>
</g>
<defs>
<linearGradient id="paint0_linear_97_53" x1="11.7612" y1="773.167" x2="38" y2="773.167" gradientUnits="userSpaceOnUse">
<stop stop-color="#8930FD"/>
<stop offset="1" stop-color="#49CCF9"/>
</linearGradient>
<linearGradient id="paint1_linear_97_53" x1="12.3326" y1="1056.9" x2="37.4733" y2="1056.9" gradientUnits="userSpaceOnUse">
<stop stop-color="#FF02F0"/>
<stop offset="1" stop-color="#FFC800"/>
</linearGradient>
<clipPath id="clip0_97_53">
<rect width="48" height="48" fill="white"/>
</clipPath>
<clipPath id="clip1_97_53">
<rect width="48" height="48" fill="white"/>
</clipPath>
</defs>
</svg>
