<svg width="48" height="48" viewBox="0 0 48 48" fill="none" xmlns="http://www.w3.org/2000/svg">
<g clip-path="url(#clip0_97_114)">
<path d="M36.75 0H11.25C5.0368 0 0 5.0368 0 11.25V36.75C0 42.9632 5.0368 48 11.25 48H36.75C42.9632 48 48 42.9632 48 36.75V11.25C48 5.0368 42.9632 0 36.75 0Z" fill="#F03C2E"/>
<mask id="mask0_97_114" style="mask-type:luminance" maskUnits="userSpaceOnUse" x="5" y="5" width="38" height="38">
<path d="M42.75 5.25H5.25V42.75H42.75V5.25Z" fill="white"/>
</mask>
<g mask="url(#mask0_97_114)">
<path d="M42.0421 22.3301L25.6698 5.95781C25.4458 5.73351 25.1795 5.55559 24.8866 5.4342C24.5936 5.3128 24.2795 5.25032 23.9625 5.25032C23.6454 5.25032 23.3313 5.3128 23.0383 5.4342C22.7454 5.55559 22.4791 5.73351 22.2551 5.95781L18.8566 9.35625L23.1691 13.6688C24.1723 13.3172 25.3207 13.5574 26.1198 14.3566C26.5003 14.7378 26.766 15.2182 26.8863 15.7431C27.0067 16.268 26.9771 16.8162 26.8006 17.325L30.9573 21.4817C31.9629 21.1348 33.123 21.3585 33.9256 22.1636C34.1926 22.4306 34.4043 22.7475 34.5487 23.0963C34.6931 23.445 34.7673 23.8187 34.7673 24.1961C34.7671 24.5736 34.6929 24.9473 34.5483 25.296C34.4038 25.6446 34.1921 25.9614 33.9251 26.2283C33.6583 26.4953 33.3414 26.7068 32.9926 26.8511C32.6439 26.9957 32.2702 27.0699 31.8928 27.0698C31.5153 27.0698 31.1415 26.9953 30.7929 26.8509C30.4441 26.7064 30.1273 26.4947 29.8605 26.2277C29.0167 25.3839 28.8082 24.1418 29.2348 23.1023L25.3582 19.2257V29.427C25.6396 29.5661 25.8967 29.7499 26.1198 29.9708C26.3866 30.2376 26.5983 30.5543 26.7429 30.903C26.8873 31.2516 26.9615 31.6253 26.9615 32.0027C26.9615 32.3801 26.8873 32.7538 26.7429 33.1024C26.5983 33.4511 26.3866 33.768 26.1198 34.0348C25.853 34.3016 25.5361 34.5133 25.1876 34.6577C24.8388 34.8021 24.4651 34.8765 24.0879 34.8765C23.7105 34.8765 23.3368 34.8021 22.9882 34.6577C22.6395 34.5133 22.3226 34.3016 22.0558 34.0348C21.7886 33.768 21.5767 33.4513 21.4321 33.1028C21.2874 32.754 21.213 32.3801 21.213 32.0027C21.213 31.6253 21.2874 31.2516 21.4321 30.9028C21.5767 30.5541 21.7886 30.2374 22.0558 29.9708C22.3335 29.6942 22.6417 29.4844 22.9968 29.3438V19.0476C22.6546 18.9069 22.3335 18.6996 22.0558 18.4207C21.6523 18.0177 21.378 17.5036 21.2677 16.9441C21.1576 16.3845 21.2165 15.8048 21.437 15.2789L17.1832 11.0273L5.95659 22.2422C5.73214 22.4664 5.55407 22.7327 5.43257 23.0258C5.31107 23.3188 5.24854 23.6329 5.24854 23.9501C5.24854 24.2674 5.31107 24.5816 5.43257 24.8747C5.55407 25.1678 5.73214 25.434 5.95659 25.6583L22.3301 42.0293C22.5541 42.2535 22.8204 42.4314 23.1133 42.5529C23.4063 42.6743 23.7204 42.7367 24.0375 42.7367C24.3545 42.7367 24.6686 42.6743 24.9616 42.5529C25.2545 42.4314 25.5208 42.2535 25.7448 42.0293L42.0421 25.7578C42.2666 25.5336 42.4447 25.2673 42.5662 24.9743C42.6877 24.6812 42.7501 24.3671 42.7501 24.0499C42.7501 23.7326 42.6877 23.4184 42.5662 23.1253C42.4447 22.8323 42.2666 22.566 42.0421 22.3418" fill="white"/>
</g>
</g>
<defs>
<clipPath id="clip0_97_114">
<rect width="48" height="48" fill="white"/>
</clipPath>
</defs>
</svg>
