<svg width="48" height="48" viewBox="0 0 48 48" fill="none" xmlns="http://www.w3.org/2000/svg">
<g clip-path="url(#clip0_97_71)">
<path d="M36.75 0H11.25C5.0368 0 0 5.0368 0 11.25V36.75C0 42.9632 5.0368 48 11.25 48H36.75C42.9632 48 48 42.9632 48 36.75V11.25C48 5.0368 42.9632 0 36.75 0Z" fill="#242938"/>
<mask id="mask0_97_71" style="mask-type:luminance" maskUnits="userSpaceOnUse" x="7" y="7" width="34" height="34">
<path d="M40.875 7.125H7.125V40.875H40.875V7.125Z" fill="white"/>
</mask>
<g mask="url(#mask0_97_71)">
<path fill-rule="evenodd" clip-rule="evenodd" d="M38.2126 33.4144C36.377 33.3634 34.9529 33.5514 33.7595 34.0536C33.4158 34.1916 32.8644 34.1916 32.819 34.6241C33.0028 34.8056 33.0249 35.1026 33.1859 35.3543C33.461 35.8108 33.9436 36.4258 34.3794 36.7449L35.8483 37.7946C36.7434 38.3415 37.7533 38.6612 38.6253 39.2087C39.1304 39.5282 39.6352 39.9388 40.1403 40.2814C40.3976 40.4638 40.5534 40.761 40.8749 40.8744V40.8054C40.7144 40.6009 40.6681 40.3044 40.5082 40.0753L39.8188 39.4142C39.1537 38.5247 38.3268 37.7484 37.4317 37.1104C36.6971 36.6084 35.0909 35.9243 34.7924 35.0807L34.7473 35.0295C35.2514 34.9785 35.8483 34.8009 36.3307 34.6641C37.1116 34.4595 37.8226 34.5045 38.6253 34.2994L39.7278 33.9799V33.7753C39.3146 33.3649 39.0163 32.8172 38.5805 32.4298C37.4101 31.4261 36.1239 30.4449 34.7924 29.6239C34.0811 29.1679 33.1627 28.8707 32.4054 28.4837C32.1292 28.3466 31.6708 28.2782 31.5103 28.0502C31.0961 27.5492 30.8671 26.8869 30.5688 26.2935L28.6869 22.3245C28.2738 21.4348 28.0207 20.5451 27.5165 19.7241C25.1519 15.8461 22.5808 13.4968 18.6328 11.1925C17.7839 10.7134 16.774 10.5074 15.7003 10.2569L13.9789 10.1648C13.6111 10.0053 13.2443 9.57175 12.9227 9.36621C11.6145 8.54511 8.2401 6.76589 7.27549 9.11057C6.65556 10.5933 8.19381 12.053 8.71597 12.8061C9.10697 13.3306 9.61114 13.9237 9.88742 14.5168C10.0417 14.9043 10.0932 15.3154 10.2542 15.7259C10.621 16.7296 10.9657 17.8477 11.4478 18.7834C11.705 19.2624 11.9751 19.7649 12.2966 20.1981C12.4803 20.4536 12.8018 20.5631 12.8703 20.9736C12.5487 21.4301 12.5266 22.1138 12.3429 22.6849C11.5162 25.2626 11.8377 28.4561 13.0081 30.354C13.376 30.924 14.2429 32.1791 15.4189 31.6997C16.4519 31.2891 16.2215 29.9889 16.5199 28.8482C16.5893 28.5748 16.543 28.3922 16.6804 28.2092V28.2604L17.6218 30.1536C18.3333 31.2713 19.5733 32.4349 20.6056 33.2109C21.1561 33.6216 21.5924 34.3292 22.2808 34.5797V34.5107H22.2356C22.0976 34.3061 21.8908 34.2141 21.7072 34.0545C21.2941 33.6441 20.8351 33.1419 20.5136 32.6859C19.55 31.4087 18.7012 29.994 17.9434 28.5343C17.5755 27.8273 17.254 27.0516 16.9566 26.3445C16.8177 26.0706 16.8177 25.6594 16.5888 25.5234C16.2441 26.0244 15.7399 26.4591 15.4863 27.0746C15.05 28.0553 15.0048 29.2644 14.8443 30.5192C14.7517 30.5421 14.7928 30.5192 14.7517 30.5702C14.018 30.3883 13.7649 29.6346 13.4897 28.9965C12.8013 27.3769 12.6861 24.7764 13.2829 22.9058C13.4434 22.4267 14.1328 20.9211 13.8575 20.4649C13.7186 20.0314 13.2607 19.7809 13.0076 19.4383C12.7092 19.0048 12.3887 18.4577 12.1819 17.9786C11.6314 16.7004 11.3562 15.2868 10.7589 14.0091C10.4826 13.416 10.0011 12.7999 9.61063 12.2529C9.17437 11.6368 8.69334 11.2032 8.34866 10.4736C8.23393 10.218 8.07341 9.81205 8.25709 9.538C8.30235 9.35549 8.39496 9.28236 8.5776 9.24147C8.87599 8.98583 9.72587 9.30998 10.0243 9.44597C10.8731 9.78852 11.5846 10.1076 12.2961 10.5861C12.6177 10.8141 12.9624 11.2477 13.3755 11.3622H13.858C14.5927 11.5217 15.4184 11.4134 16.1062 11.6179C17.3229 12.0064 18.4244 12.576 19.4122 13.1926C22.4188 15.0858 24.8984 17.7777 26.5734 20.9946C26.8486 21.5192 26.9634 21.9983 27.2165 22.5458C27.6991 23.664 28.2959 24.8042 28.7769 25.8998C29.2595 26.9719 29.7183 28.0676 30.4068 28.9571C30.7514 29.4362 32.1281 29.6867 32.7476 29.9378C33.2069 30.1423 33.9179 30.3264 34.3321 30.5769C35.1119 31.056 35.8925 31.6035 36.6266 32.1281C36.9933 32.4011 38.1418 32.9717 38.21 33.4268L38.2126 33.4144ZM14.8046 13.5914C14.4875 13.5886 14.1714 13.6269 13.8642 13.7054V13.7565H13.9095C14.0931 14.1216 14.4147 14.3726 14.6441 14.6921L15.1725 15.7873L15.2177 15.7362C15.5393 15.5081 15.7003 15.1431 15.7003 14.596C15.5624 14.4365 15.5398 14.2765 15.4251 14.117C15.2872 13.8889 14.9888 13.7744 14.8046 13.5924V13.5914Z" fill="white"/>
</g>
</g>
<defs>
<clipPath id="clip0_97_71">
<rect width="48" height="48" fill="white"/>
</clipPath>
</defs>
</svg>
