<svg width="48" height="48" viewBox="0 0 48 48" fill="none" xmlns="http://www.w3.org/2000/svg">
<g clip-path="url(#clip0_97_64)">
<path d="M36.75 0H11.25C5.0368 0 0 5.0368 0 11.25V36.75C0 42.9632 5.0368 48 11.25 48H36.75C42.9632 48 48 42.9632 48 36.75V11.25C48 5.0368 42.9632 0 36.75 0Z" fill="#242938"/>
<path d="M27.5115 3.375C27.2197 3.375 26.9488 3.43916 26.6987 3.52472C27.2303 3.88836 27.522 4.36961 27.6679 4.91505C27.6784 4.98992 27.6992 5.04339 27.7095 5.11824C27.72 5.18243 27.7305 5.24659 27.7305 5.31077C27.7721 6.25191 27.4907 6.36954 27.2927 6.92567C26.9904 7.64224 27.0739 8.41226 27.4386 9.03255C27.4699 9.10742 27.5115 9.19298 27.5636 9.26784C27.1676 6.56205 29.3666 6.15564 29.7731 5.31077C29.8042 4.57283 29.2103 4.08086 28.7413 3.73862C28.2932 3.46056 27.8867 3.375 27.5115 3.375ZM30.8258 3.9846C30.7839 4.23058 30.8152 4.16642 30.8049 4.29476C30.7944 4.38032 30.7944 4.48727 30.7839 4.57282C30.7631 4.65838 30.7423 4.74394 30.711 4.82949C30.6902 4.91505 30.6589 5.00061 30.6278 5.08616C30.5859 5.17174 30.5548 5.24659 30.513 5.33214C30.4819 5.37495 30.4609 5.4177 30.4298 5.46049C30.4089 5.49257 30.3879 5.52465 30.3671 5.55675C30.315 5.63162 30.2629 5.70647 30.2107 5.77063C30.1483 5.83481 30.0962 5.90966 30.0232 5.96316C30.0232 5.97386 30.0232 5.97386 30.0232 5.97386C29.9606 6.02734 29.8982 6.0915 29.8252 6.14498C29.6064 6.31609 29.3563 6.44443 29.127 6.60486C29.0541 6.65831 28.9811 6.7011 28.9185 6.76526C28.8456 6.81874 28.7831 6.87221 28.7205 6.93639C28.6476 7.00056 28.5954 7.06472 28.533 7.13959C28.4809 7.20377 28.4182 7.27862 28.3766 7.35349C28.3245 7.42836 28.2724 7.50321 28.2307 7.57808C28.1889 7.66363 28.1578 7.7385 28.116 7.82406C28.0849 7.90961 28.0536 7.98448 28.0327 8.07004C28.0014 8.16628 27.9806 8.25186 27.9598 8.33741C27.9493 8.3802 27.9493 8.43366 27.9388 8.47644C27.9285 8.51923 27.9285 8.562 27.918 8.60479C27.918 8.69034 27.9077 8.78659 27.9077 8.87214C27.9077 8.93632 27.9077 9.00049 27.918 9.06465C27.918 9.15021 27.9285 9.23576 27.9493 9.33203C27.9598 9.41758 27.9806 9.50314 28.0014 9.58869C28.0328 9.67425 28.0536 9.75983 28.0849 9.84538C28.1057 9.89886 28.137 9.95233 28.1578 9.9951L25.7608 9.04326C25.3543 8.92562 24.9583 8.81867 24.5518 8.72242C24.333 8.66895 24.1142 8.61548 23.8952 8.562C23.2699 8.43366 22.6342 8.33741 21.9984 8.27325C21.9776 8.27325 21.9673 8.26252 21.9463 8.26252C21.321 8.19836 20.7062 8.16628 20.0809 8.16628C19.6222 8.16628 19.1638 8.18766 18.7157 8.21976C18.0799 8.26254 17.4442 8.34808 16.8085 8.45503C16.6521 8.47641 16.4958 8.50851 16.3395 8.54061C16.0164 8.60477 15.7037 8.67964 15.4015 8.75449C15.2452 8.79729 15.0889 8.84004 14.9325 8.88283C14.7762 8.94699 14.6303 9.02186 14.4844 9.08603C14.3698 9.1395 14.2551 9.19297 14.1405 9.24645C14.1197 9.25716 14.0988 9.25716 14.0884 9.26782C13.9842 9.3213 13.8904 9.36407 13.7966 9.41756C13.7653 9.42827 13.7445 9.43892 13.7236 9.44964C13.609 9.50312 13.4943 9.56728 13.4005 9.62076C13.3276 9.65284 13.2546 9.69562 13.1921 9.72771C13.1609 9.74908 13.1191 9.77049 13.0983 9.78118C13.0045 9.83466 12.9107 9.88813 12.8273 9.94161C12.7336 9.99508 12.6502 10.0485 12.5772 10.102C12.5043 10.1555 12.4313 10.1983 12.3688 10.2517C12.3584 10.2625 12.348 10.2625 12.3375 10.2731C12.275 10.3159 12.202 10.3694 12.1395 10.4228C12.1395 10.4228 12.1291 10.4335 12.1187 10.4442C12.0666 10.487 12.0145 10.5298 11.9623 10.5726C11.9415 10.5833 11.9206 10.6046 11.8998 10.6154C11.8477 10.6582 11.7956 10.7116 11.7435 10.7544C11.7331 10.7758 11.7122 10.7865 11.7018 10.7972C11.6393 10.8613 11.5767 10.9148 11.5142 10.979C11.5038 10.979 11.5038 10.9897 11.4934 11.0004C11.4308 11.0538 11.3683 11.118 11.3058 11.1822C11.2953 11.1929 11.2953 11.2036 11.285 11.2036C11.2328 11.257 11.1807 11.3105 11.1286 11.3747C11.1078 11.396 11.0765 11.4175 11.0557 11.4388C11.0036 11.503 10.941 11.5672 10.8785 11.6314C10.8681 11.6527 10.8472 11.6634 10.8368 11.6848C10.7534 11.7704 10.6805 11.8559 10.5971 11.9415C10.5867 11.9522 10.5763 11.9629 10.5658 11.9736C10.3991 12.1554 10.2219 12.3372 10.0343 12.4976C9.84673 12.6687 9.64873 12.8292 9.45071 12.9682C9.24227 13.1179 9.04425 13.2463 8.8254 13.3746C8.61696 13.4922 8.39811 13.5992 8.16883 13.6954C7.94996 13.7917 7.72069 13.8773 7.49141 13.9521C7.05369 14.0484 6.60557 14.2302 6.21996 14.2623C6.13657 14.2623 6.04279 14.2836 5.95941 14.2943C5.86562 14.3157 5.78224 14.3371 5.69887 14.3585C5.61549 14.3906 5.53211 14.4227 5.44875 14.4548C5.36537 14.4869 5.28201 14.5296 5.19862 14.5724C5.12567 14.6259 5.04231 14.6687 4.96935 14.7221C4.89639 14.7756 4.82344 14.8398 4.76091 14.904C4.68797 14.9574 4.61501 15.0323 4.55248 15.0965C4.48995 15.1713 4.42742 15.2355 4.37531 15.3104C4.32321 15.3959 4.26067 15.4708 4.21897 15.5564C4.16687 15.6312 4.11476 15.7168 4.07308 15.8023C4.03136 15.8986 3.9897 15.9841 3.95843 16.0804C3.92717 16.166 3.89589 16.2622 3.86464 16.3585C3.84381 16.444 3.82294 16.5296 3.81253 16.6151C3.81253 16.6258 3.80209 16.6365 3.80209 16.6472C3.78126 16.7435 3.78126 16.8718 3.77083 16.936C3.76039 17.0108 3.75 17.075 3.75 17.1499C3.75 17.1927 3.75 17.2461 3.76044 17.2889C3.77087 17.3638 3.78126 17.4279 3.80214 17.4921C3.82297 17.5563 3.84384 17.6204 3.87508 17.6846C3.87508 17.6953 3.87508 17.6953 3.87508 17.6953C3.90636 17.7595 3.94804 17.8237 3.98974 17.8878C4.03144 17.952 4.0731 18.0162 4.12521 18.0803C4.17733 18.1338 4.23986 18.198 4.30239 18.2515C4.36491 18.3156 4.42746 18.3691 4.50039 18.4226C4.75052 18.6472 4.81305 18.722 5.13613 18.8931C5.18824 18.9253 5.24034 18.9467 5.30287 18.9788C5.31332 18.9788 5.32371 18.9894 5.33415 18.9894C5.33415 19.0108 5.33415 19.0215 5.34458 19.0429C5.35502 19.1284 5.37585 19.2141 5.39668 19.2996C5.41751 19.3957 5.44881 19.4814 5.48006 19.5563C5.51134 19.6204 5.53217 19.6845 5.56344 19.7488C5.57389 19.7702 5.58427 19.7916 5.5947 19.8022C5.63642 19.8877 5.67808 19.9626 5.71976 20.0376C5.77187 20.1124 5.82397 20.1872 5.8761 20.2622C5.92821 20.3263 5.99074 20.4011 6.05327 20.4653C6.1158 20.5296 6.17833 20.583 6.25127 20.6471C6.25127 20.6471 6.26171 20.6578 6.2721 20.6578C6.33463 20.7113 6.39716 20.7649 6.45969 20.8076C6.53265 20.8611 6.60561 20.9038 6.68897 20.9466C6.76192 20.9893 6.84531 21.0321 6.92867 21.0643C6.9912 21.0964 7.06416 21.1177 7.13711 21.1391C7.14756 21.1498 7.15794 21.1498 7.17881 21.1605C7.22051 21.1712 7.2726 21.1819 7.3143 21.1926C7.28303 21.7701 7.2726 22.3155 7.356 22.5081C7.44979 22.722 7.90836 22.0695 8.36691 21.3208C8.30438 22.0588 8.26269 22.9251 8.36691 23.1818C8.48154 23.4491 9.10686 22.6149 9.64879 21.6953C17.0378 19.9412 23.7806 25.1818 24.4894 32.5826C24.3538 31.4274 22.9678 30.7858 22.332 30.9463C22.0194 31.7376 21.4879 32.7536 20.6332 33.3846C20.7064 32.6788 20.6751 31.9515 20.5292 31.2457C20.2999 32.2296 19.8518 33.1494 19.2368 33.9407C18.2468 34.0157 17.2567 33.5237 16.7356 32.7857C16.6939 32.7536 16.6835 32.6895 16.6522 32.6467C16.621 32.5717 16.5897 32.4969 16.5688 32.4221C16.5376 32.3473 16.5167 32.2723 16.5063 32.1975C16.4959 32.1227 16.4959 32.0479 16.4959 31.9622C16.4959 31.9087 16.4959 31.8553 16.4959 31.8019C16.5063 31.7269 16.5271 31.6521 16.548 31.5773C16.5688 31.5024 16.5897 31.4274 16.6209 31.3526C16.6626 31.2778 16.6939 31.203 16.746 31.128C16.9232 30.6146 16.9232 30.1976 16.6001 29.9516C16.5376 29.9089 16.475 29.8768 16.4021 29.8447C16.3604 29.8339 16.3083 29.8125 16.2666 29.8018C16.2353 29.7911 16.2145 29.7804 16.1832 29.7698C16.1103 29.7484 16.0373 29.727 15.9644 29.7163C15.8914 29.6949 15.8185 29.6842 15.7455 29.6842C15.6725 29.6736 15.5892 29.6629 15.5162 29.6629C15.4641 29.6629 15.412 29.6736 15.3599 29.6736C15.2765 29.6736 15.2036 29.6842 15.1306 29.7056C15.0577 29.7163 14.9847 29.727 14.9118 29.7484C14.8388 29.7698 14.7658 29.7913 14.6929 29.8234C14.62 29.8554 14.5574 29.8875 14.4845 29.9196C14.4219 29.9516 14.3594 29.9944 14.2864 30.0264C11.8582 31.6521 13.3068 35.4594 14.9639 36.561C14.3386 36.6788 13.7028 36.8177 13.5257 36.9568C13.5152 36.9675 13.5048 36.9782 13.5048 36.9782C13.953 37.2562 14.422 37.4916 14.9118 37.6946C15.5788 37.9192 16.2874 38.1225 16.6001 38.208V38.2187C17.4651 38.4006 18.3405 38.4647 19.2264 38.4113C23.8432 38.0798 27.6263 34.4756 28.3142 29.727C28.335 29.8234 28.3558 29.9089 28.3766 30.0051C28.4079 30.1976 28.4496 30.4009 28.4706 30.6039C28.4706 30.6039 28.4706 30.6039 28.4706 30.6148C28.4914 30.711 28.5017 30.8072 28.5122 30.8929C28.5122 30.9142 28.5122 30.9249 28.5122 30.9356C28.5227 31.0318 28.533 31.1282 28.533 31.2137C28.5435 31.3313 28.5538 31.449 28.5538 31.5666C28.5538 31.62 28.5538 31.6736 28.5538 31.7378C28.5538 31.7912 28.5643 31.8553 28.5643 31.9087C28.5643 31.9731 28.5538 32.0372 28.5538 32.1013C28.5538 32.1548 28.5538 32.2084 28.5538 32.2511C28.5538 32.3259 28.5435 32.3901 28.5435 32.4651C28.5435 32.5078 28.5435 32.5506 28.533 32.604C28.533 32.6788 28.5225 32.7538 28.5225 32.8393C28.512 32.8714 28.512 32.9034 28.512 32.9355C28.5017 33.0212 28.4912 33.096 28.4809 33.1815C28.4809 33.2136 28.4809 33.2456 28.4704 33.2779C28.4599 33.3847 28.4391 33.4809 28.4287 33.588V33.5987V33.6094C28.4079 33.7056 28.3869 33.8126 28.3661 33.9088C28.3661 33.9195 28.3661 33.9302 28.3661 33.9409C28.3453 34.0371 28.3245 34.1334 28.3037 34.2296C28.3037 34.2403 28.2932 34.2617 28.2932 34.2724C28.2724 34.3687 28.2516 34.4649 28.2202 34.5613C28.2202 34.572 28.2202 34.5825 28.2202 34.5934C28.1889 34.7003 28.1576 34.7964 28.1368 34.8928C28.1265 34.9035 28.1265 34.9142 28.1265 34.9142C28.0952 35.0211 28.0639 35.1279 28.0326 35.235C27.9909 35.3419 27.9596 35.4383 27.918 35.5451C27.8764 35.652 27.8451 35.7591 27.8034 35.8552C27.7616 35.9623 27.72 36.0585 27.6784 36.1654H27.6679C27.6261 36.2618 27.5844 36.3686 27.5323 36.4648C27.5218 36.4969 27.5115 36.5184 27.501 36.5398C27.4907 36.5505 27.4907 36.5612 27.4802 36.5719C26.8028 37.9729 25.8024 39.2027 24.5518 40.1653C24.4684 40.2187 24.3849 40.2829 24.3017 40.3472C24.2809 40.3684 24.2496 40.3793 24.2288 40.4006C24.1556 40.4541 24.0827 40.5075 23.9994 40.5609L24.0306 40.6252H24.0411C24.1869 40.6039 24.3328 40.5823 24.4789 40.5609H24.4892C24.7601 40.5182 25.0313 40.4647 25.3022 40.4113C25.3751 40.4006 25.4584 40.3793 25.5315 40.3579C25.5834 40.347 25.6252 40.3365 25.6774 40.3256C25.7503 40.3149 25.8233 40.2936 25.8962 40.2829C25.9586 40.2615 26.0213 40.2508 26.0837 40.2294C27.126 39.9728 28.1368 39.6199 29.106 39.2027C27.4491 41.5236 25.2293 43.3952 22.6343 44.625C23.8328 44.5395 25.0313 44.3362 26.1879 43.9941C30.3879 42.7213 33.921 39.8229 36.0366 35.9194C35.6093 38.3899 34.6504 40.7428 33.2331 42.7961C34.2441 42.1118 35.1716 41.3203 36.0157 40.422C38.3501 37.9194 39.8822 34.743 40.4032 31.3314C40.7576 33.0212 40.8619 34.7644 40.7055 36.4862C48.2301 25.7166 41.3308 14.5512 38.4441 11.6101C38.4336 11.5887 38.4232 11.578 38.4232 11.5566C38.4127 11.5673 38.4127 11.5673 38.4127 11.578C38.4127 11.5673 38.4127 11.5673 38.4022 11.5566C38.4022 11.685 38.3918 11.8133 38.3814 11.9417C38.3501 12.1876 38.319 12.4229 38.2772 12.6582C38.2251 12.8935 38.1626 13.1288 38.1 13.3641C38.0271 13.5887 37.9438 13.8239 37.8499 14.0485C37.7561 14.2624 37.6519 14.487 37.5373 14.7009C37.4226 14.9041 37.2975 15.118 37.1621 15.3105C37.0266 15.5137 36.8807 15.7062 36.7348 15.888C36.5784 16.0805 36.4118 16.2517 36.2451 16.4228C36.1408 16.519 36.0469 16.6046 35.9428 16.6901C35.8594 16.765 35.7864 16.8292 35.703 16.904C35.5155 17.0538 35.3278 17.1928 35.1195 17.3211C34.9215 17.4495 34.713 17.5778 34.5045 17.6848C34.2857 17.7917 34.0669 17.888 33.8481 17.9842C33.6291 18.0698 33.3998 18.1446 33.1706 18.2088C32.9413 18.273 32.7015 18.3265 32.4724 18.3692C32.2326 18.412 31.9929 18.4334 31.7636 18.4548C31.5969 18.4655 31.4301 18.4762 31.2634 18.4762C31.0238 18.4762 30.7839 18.4548 30.5546 18.4334C30.315 18.412 30.0754 18.3799 29.8461 18.3264C29.6063 18.2836 29.3771 18.2195 29.1478 18.1446H29.1373C29.3666 18.1232 29.5959 18.1018 29.8252 18.059C30.0649 18.0163 30.2942 17.9628 30.5235 17.8986C30.7526 17.8345 30.9819 17.7596 31.2008 17.674C31.4301 17.5885 31.6489 17.4815 31.8574 17.3746C32.0762 17.2676 32.2742 17.15 32.4827 17.0216C32.6807 16.8826 32.8787 16.7436 33.0664 16.5939C33.2539 16.4441 33.4311 16.2837 33.5978 16.1126C33.7749 15.9522 33.9313 15.7704 34.0877 15.5885C34.2441 15.396 34.3899 15.2035 34.5253 15.011C34.5461 14.9789 34.5671 14.9362 34.5879 14.9041C34.6922 14.733 34.7962 14.5619 34.8902 14.3907C35.0047 14.1768 35.109 13.9629 35.2028 13.7384C35.2965 13.5137 35.3799 13.2892 35.4529 13.0539C35.5258 12.8293 35.5779 12.594 35.6301 12.3587C35.6719 12.1127 35.7135 11.8774 35.7343 11.6422C35.7551 11.3962 35.7759 11.1502 35.7759 10.9149C35.7759 10.7438 35.7656 10.5727 35.7551 10.4016C35.7343 10.1556 35.703 9.92029 35.6719 9.68501C35.6301 9.43903 35.5779 9.20374 35.5155 8.96846C35.4426 8.74387 35.3696 8.50858 35.2862 8.28399C35.2027 8.05941 35.0987 7.8348 34.9944 7.6209C34.8797 7.40702 34.7651 7.19312 34.6401 6.98992C34.5045 6.78671 34.3691 6.59421 34.2233 6.4017C34.0669 6.21988 33.9105 6.03808 33.7438 5.85626C33.6604 5.77071 33.5666 5.67446 33.4729 5.58891C33.0038 5.21458 32.514 4.86165 32.0243 4.5408C31.9513 4.49801 31.8887 4.46595 31.8158 4.43385C31.4719 4.20926 31.1488 4.09155 30.8258 3.9846Z" fill="#E0234E"/>
</g>
<defs>
<clipPath id="clip0_97_64">
<rect width="48" height="48" fill="white"/>
</clipPath>
</defs>
</svg>
