<svg width="48" height="48" viewBox="0 0 48 48" fill="none" xmlns="http://www.w3.org/2000/svg">
<g clip-path="url(#clip0_97_89)">
<path d="M37.75 0H12.25C6.0368 0 1 5.0368 1 11.25V36.75C1 42.9632 6.0368 48 12.25 48H37.75C43.9632 48 49 42.9632 49 36.75V11.25C49 5.0368 43.9632 0 37.75 0Z" fill="#242938"/>
<path d="M25.0002 27.5533C26.9322 27.5533 28.4982 25.9871 28.4982 24.0553C28.4982 22.1235 26.9322 20.5573 25.0002 20.5573C23.0684 20.5573 21.5022 22.1235 21.5022 24.0553C21.5022 25.9871 23.0684 27.5533 25.0002 27.5533Z" fill="#00D8FF"/>
<path fill-rule="evenodd" clip-rule="evenodd" d="M25.0004 16.9431C29.6969 16.9431 34.0598 17.617 37.3495 18.7495C41.3131 20.1141 43.75 22.1824 43.75 24.0553C43.75 26.007 41.1674 28.2043 36.9109 29.6145C33.6931 30.6806 29.4586 31.2371 25.0004 31.2371C20.4295 31.2371 16.101 30.7147 12.8469 29.6027C8.72978 28.1955 6.25 25.9699 6.25 24.0553C6.25 22.1976 8.5768 20.1452 12.4847 18.7828C15.7866 17.6316 20.2572 16.9431 24.9996 16.9431H25.0004Z" stroke="#00D8FF" stroke-width="1.5"/>
<path fill-rule="evenodd" clip-rule="evenodd" d="M18.809 20.5196C21.1553 16.4513 23.9185 13.0084 26.5431 10.7245C29.7051 7.97261 32.7145 6.8949 34.3368 7.83043C36.0274 8.80543 36.6408 12.1406 35.7361 16.5321C35.0526 19.8523 33.4188 23.7984 31.1914 27.6606C28.9079 31.6202 26.2932 35.1088 23.7044 37.3716C20.4286 40.2351 17.2616 41.2714 15.6031 40.3149C13.9938 39.3876 13.3784 36.3461 14.1504 32.2802C14.8027 28.8446 16.4397 24.6279 18.8082 20.5196H18.809Z" stroke="#00D8FF" stroke-width="1.5"/>
<path fill-rule="evenodd" clip-rule="evenodd" d="M18.8148 27.6709C16.4618 23.607 14.8599 19.4929 14.1912 16.0784C13.3863 11.9645 13.9554 8.81916 15.5762 7.88091C17.2653 6.90306 20.461 8.03738 23.8138 11.0144C26.3488 13.2652 28.9519 16.651 31.1856 20.5093C33.4757 24.4652 35.1921 28.473 35.8598 31.8458C36.7047 36.114 36.0208 39.3752 34.3639 40.3343C32.7563 41.265 29.8142 40.2797 26.6772 37.5801C24.0267 35.2993 21.1909 31.7753 18.8148 27.6709Z" stroke="#00D8FF" stroke-width="1.5"/>
</g>
<defs>
<clipPath id="clip0_97_89">
<rect width="48" height="48" fill="white"/>
</clipPath>
</defs>
</svg>
