<svg width="48" height="48" viewBox="0 0 48 48" fill="none" xmlns="http://www.w3.org/2000/svg">
<g clip-path="url(#clip0_97_107)">
<path d="M36.75 0H11.25C5.0368 0 0 5.0368 0 11.25V36.75C0 42.9632 5.0368 48 11.25 48H36.75C42.9632 48 48 42.9632 48 36.75V11.25C48 5.0368 42.9632 0 36.75 0Z" fill="#CD6799"/>
<mask id="mask0_97_107" style="mask-type:luminance" maskUnits="userSpaceOnUse" x="5" y="9" width="38" height="30">
<path d="M42.75 9.9375H5.25V38.0454H42.75V9.9375Z" fill="white"/>
</mask>
<g mask="url(#mask0_97_107)">
<path d="M37.52 26.0931C36.2124 26.0998 35.0761 26.4148 34.1246 26.8802C33.7755 26.1889 33.4263 25.5727 33.3646 25.1209C33.2962 24.5938 33.2141 24.2721 33.2962 23.6422C33.3783 23.0124 33.7481 22.1158 33.7411 22.0474C33.7344 21.9787 33.659 21.6572 32.906 21.6502C32.153 21.6435 31.5028 21.7941 31.4274 21.9926C31.352 22.191 31.2084 22.6429 31.1126 23.1084C30.9825 23.793 29.6064 26.2369 28.8193 27.5169C28.566 27.0172 28.347 26.5791 28.299 26.2299C28.2305 25.7029 28.1484 25.3811 28.2305 24.7513C28.3126 24.1215 28.6824 23.2247 28.6755 23.1562C28.6687 23.0878 28.5933 22.7661 27.8403 22.7593C27.0873 22.7524 26.4369 22.9029 26.3617 23.1015C26.2863 23.3001 26.2042 23.7656 26.0467 24.2173C25.8894 24.6692 24.0616 28.7492 23.5824 29.8033C23.336 30.3441 23.1238 30.7753 22.9732 31.0697C22.9732 31.0697 22.9663 31.0903 22.9458 31.1244C22.8157 31.3777 22.7403 31.5146 22.7403 31.5146C22.7403 31.5146 22.7403 31.5146 22.7403 31.5216C22.6378 31.7064 22.5281 31.8774 22.4733 31.8774C22.4323 31.8774 22.3571 31.3847 22.487 30.7138C22.761 29.2967 23.4112 27.0924 23.4045 27.0172C23.4045 26.9762 23.5276 26.5927 22.98 26.3942C22.446 26.1956 22.2543 26.5243 22.2063 26.5243C22.1585 26.5243 22.1242 26.6407 22.1242 26.6407C22.1242 26.6407 22.7199 24.1626 20.988 24.1626C19.9063 24.1626 18.414 25.3468 17.6747 26.4148C17.2092 26.6681 16.2165 27.2089 15.1555 27.7907C14.7516 28.0166 14.334 28.2426 13.9438 28.4548C13.9164 28.4274 13.8891 28.3931 13.8617 28.3657C11.7669 26.1272 7.89236 24.546 8.05664 21.5407C8.11826 20.4454 8.49476 17.5703 15.4978 14.0791C21.2617 11.2381 25.8483 12.0254 26.6424 13.771C27.7786 16.2628 24.1848 20.8903 18.2292 21.5612C15.9564 21.8145 14.7653 20.9383 14.4641 20.6098C14.1492 20.2674 14.1013 20.247 13.9849 20.3154C13.7932 20.418 13.9164 20.7261 13.9849 20.904C14.1629 21.3696 14.8954 22.191 16.1344 22.5949C17.2297 22.9509 19.8926 23.1495 23.1168 21.9036C26.7245 20.5071 29.5449 16.6256 28.7165 13.374C27.8883 10.0744 22.4118 8.98595 17.2297 10.8274C14.1492 11.9227 10.8086 13.6478 8.40577 15.8931C5.55118 18.5629 5.09936 20.8836 5.28419 21.8556C5.94821 25.3057 10.7059 27.5511 12.6089 29.2146C12.5131 29.2693 12.4241 29.3173 12.3488 29.3584C11.3973 29.8307 7.76913 31.7269 6.86551 33.7327C5.83869 36.0054 7.02982 37.6346 7.81706 37.8536C10.2609 38.5314 12.7732 37.3129 14.1218 35.3002C15.4704 33.2876 15.3061 30.6727 14.6832 29.4748C14.6763 29.4611 14.6695 29.4474 14.6558 29.4337C14.9022 29.2899 15.1555 29.1394 15.4019 28.9956C15.888 28.7081 16.3671 28.4411 16.7779 28.2219C16.5451 28.8587 16.374 29.6184 16.2918 30.7138C16.1892 32.0008 16.7163 33.6711 17.4077 34.3282C17.7157 34.6157 18.0786 34.6226 18.3113 34.6226C19.1191 34.6226 19.482 33.9517 19.8858 33.1577C20.3786 32.1855 20.8237 31.056 20.8237 31.056C20.8237 31.056 20.2691 34.1092 21.7751 34.1092C22.3228 34.1092 22.8772 33.3973 23.1238 33.0345C23.1238 33.0412 23.1238 33.0412 23.1238 33.0412C23.1238 33.0412 23.1375 33.0208 23.1648 32.9728C23.2196 32.8837 23.2537 32.829 23.2537 32.829C23.2537 32.829 23.2537 32.8222 23.2537 32.8153C23.4729 32.4321 23.9656 31.5626 24.6982 30.1181C25.6428 28.2562 26.5533 25.9288 26.5533 25.9288C26.5533 25.9288 26.6355 26.4969 26.9161 27.4416C27.0804 27.9962 27.4228 28.6054 27.6965 29.1941C27.4775 29.5022 27.3406 29.6732 27.3406 29.6732C27.3406 29.6732 27.3406 29.6732 27.3474 29.6801C27.1695 29.9128 26.9778 30.1661 26.7656 30.4125C26.0193 31.3026 25.1295 32.3226 25.0063 32.6169C24.8625 32.9661 24.8968 33.2192 25.1705 33.4247C25.3691 33.5752 25.725 33.5957 26.0878 33.5752C26.7586 33.5272 27.2311 33.363 27.4638 33.2602C27.8266 33.1303 28.2511 32.9317 28.6481 32.6374C29.3806 32.0966 29.8256 31.323 29.7845 30.303C29.7639 29.7416 29.579 29.1804 29.3533 28.6532C29.4217 28.5574 29.4832 28.4616 29.5516 28.3657C30.7087 26.6749 31.6053 24.8197 31.6053 24.8197C31.6053 24.8197 31.6875 25.3879 31.9681 26.3327C32.105 26.8117 32.3857 27.3321 32.6323 27.8387C31.5438 28.7218 30.873 29.7486 30.6333 30.4194C30.2021 31.6654 30.5375 32.2266 31.1741 32.3567C31.4617 32.4184 31.8723 32.2815 32.1736 32.1514C32.5569 32.0282 33.0088 31.8159 33.44 31.5009C34.1724 30.9602 34.8776 30.2072 34.8365 29.1872C34.8159 28.7218 34.6927 28.263 34.5215 27.8181C35.4457 27.4348 36.6369 27.2226 38.1566 27.4005C41.4151 27.7839 42.0586 29.817 41.9353 30.6727C41.8121 31.5283 41.1275 31.9939 40.9016 32.1377C40.6758 32.2815 40.6005 32.3293 40.6211 32.4321C40.6485 32.5826 40.758 32.5757 40.9496 32.5483C41.2166 32.5005 42.6609 31.857 42.7226 30.2826C42.8253 28.2699 40.9085 26.0724 37.52 26.0931ZM12.383 34.5679C11.3014 35.7452 9.79542 36.1903 9.1451 35.8138C8.44685 35.4097 8.72067 33.6711 10.0487 32.4251C10.8565 31.6654 11.897 30.9602 12.5884 30.5289C12.7458 30.4331 12.9786 30.2962 13.2593 30.1251C13.3072 30.0977 13.3346 30.084 13.3346 30.084C13.3893 30.0497 13.4441 30.0156 13.4989 29.9812C13.9849 31.7612 13.5194 33.3289 12.383 34.5679ZM20.2554 29.2146C19.8789 30.132 19.0918 32.4799 18.6125 32.3499C18.2018 32.2402 17.9485 30.4605 18.5304 28.7012C18.8248 27.8181 19.4476 26.7639 19.8105 26.3531C20.3992 25.6959 21.0495 25.4769 21.207 25.7439C21.4055 26.0931 20.4883 28.6395 20.2554 29.2146ZM26.7519 32.3226C26.5944 32.4047 26.4438 32.4594 26.3754 32.4184C26.3274 32.391 26.4438 32.2815 26.4438 32.2815C26.4438 32.2815 27.2585 31.4051 27.5803 31.0082C27.765 30.7753 27.9841 30.5016 28.2168 30.1935C28.2168 30.2209 28.2168 30.2552 28.2168 30.2826C28.2168 31.3299 27.2038 32.0349 26.7519 32.3226ZM31.7628 31.1792C31.6464 31.0971 31.667 30.8233 32.0572 29.9676C32.2078 29.6321 32.5638 29.0709 33.173 28.53C33.2415 28.7492 33.2895 28.9612 33.2825 29.1598C33.2758 30.4811 32.331 30.9739 31.7628 31.1792Z" fill="white"/>
</g>
</g>
<defs>
<clipPath id="clip0_97_107">
<rect width="48" height="48" fill="white"/>
</clipPath>
</defs>
</svg>
