<svg width="48" height="48" viewBox="0 0 48 48" fill="none" xmlns="http://www.w3.org/2000/svg">
<g clip-path="url(#clip0_34_51)">
<g clip-path="url(#clip1_34_51)">
<path d="M36.75 0H11.25C5.0368 0 0 5.0368 0 11.25V36.75C0 42.9632 5.0368 48 11.25 48H36.75C42.9632 48 48 42.9632 48 36.75V11.25C48 5.0368 42.9632 0 36.75 0Z" fill="#242938"/>
</g>
<path d="M30.5309 30.678C21.4067 29.0192 27.6688 48.8639 25.6593 39.8122C25.0782 37.239 15.9888 37.3861 16.5252 34.9406C17.5028 30.4878 15.9015 24.6646 18.961 21.5439C22.0057 14.8456 22.0057 11.8009 22.0057 11.1919C23.3291 10.8525 26.8081 6.32038 29.9219 6.32038C33.0357 6.32038 31.8314 6.17251 32.9666 6.92932C34.7935 8.1472 36.0113 9.97403 36.0113 9.97403C36.3607 11.5763 36.0113 18.4992 34.7935 20.935C34.7854 23.6177 32.7636 19.792 32.3577 21.5439C30.7646 28.4057 37.922 21.4497 31.7487 24.5886C30.1556 25.3989 34.2586 26.087 32.3577 26.4155C30.3482 26.7677 33.722 28.5996 31.7487 28.2423L30.5309 30.678Z" fill="#FEFEFE"/>
<path d="M22.5863 42.0582C18.4768 41.0216 14.8199 37.2038 11.2535 30.2508C6.16641 20.3231 5.51468 11.2713 9.68392 8.53389C11.1123 7.64331 13.196 7.67616 15.0425 8.61473C16.0672 9.13667 16.3587 9.46516 16.9434 10.7499C17.6621 12.3322 17.9427 14.1443 18.064 17.9767L18.1759 21.4989L18.7516 20.1685C19.0684 19.4367 19.7075 18.1793 20.1727 17.3581C20.638 16.546 21.02 15.659 21.02 15.3871C21.02 15.117 20.8172 14.4108 20.5674 13.814C20.1039 12.7044 20.0297 12.1022 20.227 11.0948C20.34 10.5255 20.3413 10.5236 21.5395 10.5236L22.738 10.5229L23.4857 9.54841C24.3293 8.44614 25.9658 7.10298 27.3779 6.373C28.1962 5.94597 28.5456 5.87662 29.8762 5.87662C31.2484 5.87662 31.52 5.93483 32.302 6.3949C32.7836 6.67959 33.1384 6.95151 33.0914 6.99896C33.0443 7.04641 32.5356 6.94677 31.9581 6.77814C30.5207 6.35658 29.0796 6.50805 27.6132 7.23438C24.1374 8.95713 20.6072 15.4466 21.9831 17.5636C22.1695 17.8519 22.6239 18.1092 23.2793 18.3009C24.3438 18.6129 24.8579 18.5308 23.969 18.1899C22.1044 17.4764 22.49 15.781 25.2182 12.6968L26.7732 10.9394L26.6702 9.93384C26.577 9.02319 26.6056 8.9064 26.9744 8.70748C27.4813 8.43373 28.3086 8.58831 28.9114 9.07064C29.4835 9.52505 31.2649 9.56703 32.7675 9.16353C33.3142 9.01535 34.2701 8.89344 34.8856 8.89161C35.9392 8.88959 36.0207 8.9199 36.1275 9.34603C36.19 9.59604 36.195 9.92271 36.1387 10.0705C36.0824 10.2184 36.2072 10.7275 36.4157 11.2038C36.8846 12.2732 37.0602 14.799 36.7615 16.1859C36.646 16.7298 36.2292 17.843 35.8346 18.6679C34.8479 20.7118 34.8099 21.022 35.3766 22.3725C36.3487 24.6902 37.0584 29.1248 36.8755 31.698C36.8214 32.4553 36.5605 34.1434 36.2944 35.4391C35.7875 37.9393 35.8273 38.8153 36.4754 39.3628C36.6243 39.4874 36.747 39.8519 36.747 40.173C36.747 40.8519 36.2401 41.3976 35.3168 41.7078C34.4515 41.9998 32.5832 41.967 31.678 41.6419C30.5972 41.2569 29.7047 41.3007 28.9625 41.7739C28.4049 42.1298 28.0483 42.1827 25.9754 42.2228C24.3769 42.2531 23.278 42.182 22.5539 42.0002L22.5863 42.0582ZM19.8345 35.6344C18.2251 30.8713 18.7248 25.5242 21.2991 19.9581L22.0739 18.2864L21.2448 17.5601L20.5189 19.1405C17.568 25.5643 17.1154 31.2216 19.2299 35.4373C19.7893 36.5541 20.2962 37.4265 20.3903 37.4265C20.4153 37.4265 20.1658 36.6253 19.8363 35.6471L19.8345 35.6344ZM33.6837 19.6661L34.0639 18.708L33.9813 19.5055C33.9344 19.9599 33.9669 20.2355 34.0566 20.1442C34.2047 19.9949 35.1374 17.644 35.1374 17.4068C35.1374 17.35 34.8912 17.513 34.5889 17.7681C34.0295 18.2426 33.0247 18.6094 32.2716 18.6112C31.8915 18.6122 31.8661 18.6713 31.9711 19.2974C32.1775 20.5329 32.2318 20.6205 32.7785 20.6205C33.2347 20.6205 33.3434 20.5057 33.6783 19.6624L33.6837 19.6661Z" fill="#FCFBFB"/>
<path d="M22.5863 42.0582C18.4768 41.0216 14.8199 37.2038 11.2536 30.2508C7.36131 22.6407 6.02165 15.5964 7.63286 11.2713C8.79149 8.15065 11.8872 7.07393 15.0553 8.67988C16.0799 9.20182 16.3714 9.53031 16.9562 10.8151C17.6749 12.3973 17.9555 14.2095 18.0768 18.0419L18.1886 21.564L18.7643 20.2336C19.0811 19.5018 19.7202 18.2444 20.1855 17.4232C20.6507 16.6111 21.0327 15.7242 21.0327 15.4523C21.0327 15.1822 20.8299 14.4759 20.5801 13.8792C20.1167 12.7696 20.0424 12.1674 20.2398 11.16C20.3527 10.5906 20.354 10.5888 21.5523 10.5888L22.7507 10.5881L23.4984 9.61356C24.342 8.51129 25.9786 7.16813 27.3906 6.43815C28.2089 6.01111 28.5583 5.94176 29.8889 5.94176C31.2612 5.94176 31.5327 5.99998 32.3148 6.46005C32.7963 6.74474 33.1512 7.01666 33.1041 7.06411C33.057 7.11156 32.5483 7.01191 31.9708 6.84329C30.5334 6.42173 29.0924 6.5732 27.626 7.29953C24.1501 9.02228 20.6199 15.5118 21.9958 17.6287C22.1823 17.9171 22.6367 18.1744 23.292 18.366C24.3565 18.6781 24.8706 18.596 23.9818 18.2551C22.1171 17.5415 22.5027 15.8461 25.2309 12.762L26.786 11.0045L26.683 9.99899C26.5897 9.08834 26.6183 8.97154 26.9871 8.77262C27.494 8.49888 28.3213 8.65346 28.9242 9.13579C29.4963 9.5902 31.2776 9.63217 32.7802 9.22868C33.327 9.08049 34.2828 8.95859 34.8983 8.95676C35.952 8.95474 36.0334 8.98505 36.1402 9.41117C36.2027 9.66119 36.2078 9.98786 36.1515 10.1357C36.0952 10.2835 36.2199 10.7927 36.4284 11.269C36.8973 12.3384 37.0729 14.8641 36.7742 16.2511C36.6587 16.7949 36.242 17.9081 35.8473 18.733C34.8607 20.777 34.8227 21.0872 35.3893 22.4377C36.3615 24.7553 37.0711 29.19 36.8883 31.7631C36.8341 32.5205 36.5733 34.2086 36.3072 35.5043C35.8003 38.0045 35.8401 38.8804 36.4882 39.4279C36.637 39.5526 36.7597 39.917 36.7597 40.2382C36.7597 40.9171 36.2528 41.4627 35.3296 41.773C34.4642 42.065 32.5959 42.0321 31.6908 41.7071C30.61 41.322 29.7175 41.3658 28.9752 41.839C28.4177 42.1949 28.061 42.2478 25.9882 42.288C24.3896 42.3183 23.2907 42.2471 22.5666 42.0653L22.5863 42.0582ZM19.8346 35.6344C18.2252 30.8712 18.7249 25.5242 21.2992 19.9581L22.074 18.2864L21.2449 17.5601L20.5189 19.1405C17.5681 25.5643 17.1155 31.2216 19.23 35.4373C19.7894 36.5541 20.2963 37.4265 20.3904 37.4265C20.4154 37.4265 20.1659 36.6253 19.8364 35.6471L19.8346 35.6344ZM33.6838 19.6661L34.0639 18.708L33.9814 19.5055C33.9345 19.9599 33.967 20.2355 34.0567 20.1442C34.2048 19.9949 35.1375 17.644 35.1375 17.4068C35.1375 17.35 34.8913 17.513 34.589 17.7681C34.0296 18.2426 33.0248 18.6094 32.2717 18.6112C31.8915 18.6122 31.8662 18.6713 31.9712 19.2974C32.1776 20.5329 32.2319 20.6205 32.7786 20.6205C33.2348 20.6205 33.3434 20.5057 33.6783 19.6624L33.6838 19.6661Z" fill="#FBFBFB"/>
<path d="M22.5863 42.0582C20.3415 41.4906 17.6802 39.6675 15.7794 37.3863C12.5932 33.5722 9.18971 26.7651 7.77764 21.4363C7.27074 19.5018 7.19109 18.8813 7.11505 16.1987C7.03884 13.4795 7.07034 13.0233 7.40652 11.8918C7.86273 10.3753 8.36781 9.59236 9.3798 8.80763C10.8444 7.68164 13.0186 7.62141 15.0462 8.65087C16.0708 9.1728 16.3623 9.50129 16.9471 10.7861C17.6658 12.3683 17.9464 14.1805 18.0677 18.0128L18.1795 21.535L18.7552 20.2046C19.072 19.4728 19.7111 18.2154 20.1764 17.3942C20.6416 16.5821 21.0236 15.6952 21.0236 15.4232C21.0236 15.1532 20.8208 14.4469 20.571 13.8501C20.1076 12.7406 20.0333 12.1383 20.2307 11.131C20.3436 10.5616 20.3449 10.5598 21.5432 10.5598L22.7416 10.5591L23.4893 9.58455C24.3329 8.48228 25.9695 7.13912 27.3815 6.40914C28.1998 5.9821 28.5492 5.91275 29.8798 5.91275C31.2521 5.91275 31.5236 5.97097 32.3057 6.43104C32.7872 6.71573 33.1421 6.98764 33.095 7.03509C33.0479 7.08254 32.5392 6.9829 31.9617 6.81427C30.5243 6.39271 29.0833 6.54418 27.6169 7.27051C24.141 8.99326 20.6108 15.4828 21.9867 17.5997C22.1732 17.8881 22.6276 18.1454 23.2829 18.337C24.3474 18.6491 24.8615 18.5669 23.9727 18.226C22.108 17.5125 22.4936 15.8171 25.2218 12.7329L26.7769 10.9755L26.6739 9.96997C26.5806 9.05933 26.6092 8.94253 26.978 8.74361C27.4849 8.46987 28.3122 8.62444 28.9151 9.10677C29.4872 9.56119 31.2685 9.60316 32.7711 9.19966C33.3179 9.05148 34.2737 8.92957 34.8892 8.92775C35.9429 8.92572 36.0243 8.95603 36.1311 9.38216C36.1936 9.63218 36.1987 9.95884 36.1424 10.1067C36.0861 10.2545 36.2108 10.7636 36.4193 11.24C36.8882 12.3094 37.0638 14.8351 36.7651 16.2221C36.6496 16.7659 36.2329 17.8791 35.8382 18.704C34.8516 20.7479 34.8136 21.0582 35.3802 22.4086C36.3524 24.7263 37.062 29.1609 36.8792 31.7341C36.825 32.4915 36.5642 34.1796 36.298 35.4753C35.7912 37.9754 35.831 38.8514 36.4791 39.3989C36.6279 39.5236 36.7506 39.888 36.7506 40.2092C36.7506 40.8881 36.2437 41.4337 35.3205 41.744C34.4551 42.036 32.5868 42.0031 31.6817 41.6781C30.6009 41.293 29.7084 41.3368 28.9661 41.81C28.4086 42.1659 28.0519 42.2188 25.9791 42.259C24.3805 42.2893 23.2816 42.2181 22.5575 42.0363L22.5863 42.0582ZM19.8346 35.6344C18.2252 30.8713 18.7248 25.5242 21.2991 19.9581L22.074 18.2864L21.2448 17.5601L20.5189 19.1405C17.568 25.5643 17.1154 31.2216 19.2299 35.4373C19.7893 36.5541 20.2962 37.4265 20.3903 37.4265C20.4153 37.4265 20.1659 36.6253 19.8364 35.6471L19.8346 35.6344ZM33.6837 19.6661L34.0639 18.708L33.9813 19.5055C33.9345 19.9599 33.9669 20.2355 34.0567 20.1442C34.2047 19.9949 35.1374 17.644 35.1374 17.4068C35.1374 17.35 34.8912 17.513 34.5889 17.7681C34.0295 18.2426 33.0248 18.6094 32.2717 18.6112C31.8915 18.6122 31.8661 18.6713 31.9711 19.2974C32.1775 20.5329 32.2318 20.6205 32.7786 20.6205C33.2348 20.6205 33.3434 20.5057 33.6783 19.6624L33.6837 19.6661Z" fill="#A08470"/>
<path d="M22.5863 42.0582C18.5311 40.9377 14.8199 36.9301 11.326 29.9223C8.37508 24.0094 7.12594 19.3011 7.32508 14.976C7.4891 11.4356 8.48008 9.48286 10.5656 8.57039C11.7351 8.06305 13.4079 8.13058 14.7837 8.74047C16.3823 9.4449 16.9561 10.2588 17.626 12.7371C17.9373 13.8996 18.0152 14.8723 18.0912 18.4309L18.183 22.7196L18.4944 21.8071C18.8365 20.807 20.1056 18.1937 20.7573 17.1717C21.3674 16.1972 21.4181 15.2373 20.9159 14.1423C20.648 13.562 20.4941 12.8868 20.4941 12.2809C20.4913 10.8136 20.539 10.7625 21.9152 10.7497L23.1173 10.7393L23.798 9.83782C24.6344 8.7319 26.2058 7.46538 27.6359 6.7354C28.5502 6.27187 28.9068 6.19339 30.0799 6.20069C31.2005 6.20743 31.6042 6.2934 32.2704 6.66788C32.7194 6.91972 32.9221 7.07484 32.723 7.01097C30.1523 6.19339 27.8894 6.8011 25.6989 8.90892C22.9833 11.5003 21.1368 15.9167 22.0419 17.6504C22.3877 18.3256 22.3099 18.3913 21.8084 17.8475L21.4536 17.4624L21.1006 18.1669C20.3113 19.74 19.0549 23.1855 18.5842 25.0834C18.1533 26.8208 18.0863 27.4559 18.0881 29.737C18.0915 32.1095 18.1416 32.5292 18.5751 33.8432C19.1563 35.6024 20.6208 38.0953 21.345 38.5333C21.4483 38.5966 21.3343 37.8946 21.0915 36.973C20.5665 34.9838 20.447 31.5711 20.8616 30.3849L21.1096 29.6768L21.6672 30.6586C22.6213 32.3413 25.3784 34.8195 26.6457 35.148C27.5907 35.3871 27.5689 34.1425 26.5789 31.4616C25.7244 29.1439 25.5542 28.268 25.547 26.078C25.5404 23.9063 25.8095 22.9209 27.0387 20.6762C27.8787 19.1341 27.9384 18.468 27.4026 16.7525C27.2052 16.1156 27.0423 15.4897 27.0405 15.3619C27.0392 15.2333 27.4659 15.4501 27.9891 15.8437C29.3252 16.8511 31.0848 17.7052 32.0805 17.8147C32.8191 17.9028 33.0074 17.8521 33.5034 17.4314C34.1208 16.9077 34.8196 15.2962 34.8196 14.402C34.8196 14.1045 34.8974 13.8618 34.9925 13.8618C35.2278 13.8618 35.4161 14.9714 35.3328 15.851L35.2638 16.5792L35.7653 16.0937C36.0423 15.8273 36.4315 15.1922 36.6343 14.6849L37 13.7615L36.94 15.3181C36.8859 16.727 36.7994 17.0482 36.0312 18.7125C35.5117 19.8331 35.1822 20.793 35.1822 21.1945C35.1822 21.5576 35.4266 22.4701 35.7253 23.2202C36.998 26.4321 37.3365 31.3777 36.5399 35.1006C35.9371 37.911 35.9443 38.8417 36.5693 39.5899C36.9639 40.0626 37.0219 40.2524 36.8861 40.6338C36.6344 41.3474 35.9139 41.7781 34.5869 42.0062C33.4989 42.1941 33.2581 42.1752 32.143 41.8127C30.5698 41.3017 30.2059 41.309 29.174 41.8673C28.3847 42.2907 28.153 42.3217 25.9154 42.3071C24.5033 42.2975 23.1455 42.1887 22.6205 42.0443L22.5863 42.0582ZM33.376 20.7063C33.532 20.5807 33.7544 20.3139 33.872 20.1132C34.073 19.7664 34.0784 19.7683 33.9729 20.1588C33.8063 20.772 34.1937 20.6588 34.5341 19.9922C34.9523 19.1764 35.5334 17.419 35.423 17.3095C35.3719 17.2581 35.1061 17.4305 34.8346 17.6928C34.2263 18.2767 33.5257 18.5578 32.6803 18.5578H32.0358L32.1221 19.4648C32.2467 20.7714 32.7196 21.235 33.3822 20.7021L33.376 20.7063ZM33.0719 12.4758C31.2434 11.6089 30.8089 10.3953 32.0762 9.77485C32.9035 9.36789 35.1176 8.9883 35.7512 9.1489C36.1857 9.25894 36.2454 9.36059 36.2454 10.0066C36.2454 11.2622 35.123 12.9265 34.2721 12.9083C34.1114 12.9074 33.5715 12.713 33.0737 12.4758H33.0719ZM26.8986 11.4045C27.1122 11.0724 27.1249 10.8497 26.9596 10.2329C26.5812 8.81858 27.452 8.50469 29.2406 9.41169L30.2562 9.92815L29.3004 10.2311C28.7754 10.3981 28.0114 10.8224 27.6041 11.1746C26.746 11.9155 26.5287 11.9867 26.9035 11.4045H26.8986Z" fill="#45352F"/>
</g>
<defs>
<clipPath id="clip0_34_51">
<rect width="48" height="48" fill="white"/>
</clipPath>
<clipPath id="clip1_34_51">
<rect width="48" height="48" fill="white"/>
</clipPath>
</defs>
</svg>
