<svg width="48" height="48" viewBox="0 0 48 48" fill="none" xmlns="http://www.w3.org/2000/svg">
<g clip-path="url(#clip0_44_104)">
<g clip-path="url(#clip1_44_104)">
<path d="M36.75 0H11.25C5.0368 0 0 5.0368 0 11.25V36.75C0 42.9632 5.0368 48 11.25 48H36.75C42.9632 48 48 42.9632 48 36.75V11.25C48 5.0368 42.9632 0 36.75 0Z" fill="#242938"/>
<path fill-rule="evenodd" clip-rule="evenodd" d="M26.8199 15.7571L26.7837 6H21.3429L21.3792 15.7571L24.0996 19.4931L26.8199 15.7571ZM21.3792 32.4784V42.2718H26.8199V32.4784L24.0996 28.7424L21.3792 32.4784Z" fill="white"/>
<path fill-rule="evenodd" clip-rule="evenodd" d="M26.82 32.4784L32.551 40.3857L36.9398 37.1937L31.2089 29.2865L26.82 27.8719V32.4784ZM21.3792 15.7571L15.612 7.84985L11.2231 11.0418L16.9541 18.949L21.3792 20.3636V15.7571Z" fill="#00F2E6"/>
<path fill-rule="evenodd" clip-rule="evenodd" d="M16.9541 18.949L7.6685 15.9385L6 21.0891L15.2856 24.1359L19.6745 22.685L16.9541 18.949ZM28.4885 25.5505L31.2089 29.2865L40.4945 32.2971L42.163 27.1465L32.8774 24.1359L28.4885 25.5505Z" fill="#00B9F1"/>
<path fill-rule="evenodd" clip-rule="evenodd" d="M32.8774 24.1359L42.163 21.0891L40.4945 15.9385L31.2089 18.949L28.4885 22.685L32.8774 24.1359ZM15.2856 24.1359L6 27.1465L7.6685 32.2971L16.9541 29.2865L19.6745 25.5505L15.2856 24.1359Z" fill="#D63AFF"/>
<path fill-rule="evenodd" clip-rule="evenodd" d="M16.9541 29.2865L11.2231 37.1937L15.612 40.3857L21.3792 32.4784V27.8719L16.9541 29.2865ZM31.2089 18.949L36.9398 11.0418L32.551 7.84985L26.82 15.7571V20.3636L31.2089 18.949Z" fill="#FB015B"/>
</g>
</g>
<defs>
<clipPath id="clip0_44_104">
<rect width="48" height="48" fill="white"/>
</clipPath>
<clipPath id="clip1_44_104">
<rect width="48" height="48" fill="white"/>
</clipPath>
</defs>
</svg>
