<svg width="48" height="48" viewBox="0 0 48 48" fill="none" xmlns="http://www.w3.org/2000/svg">
<g clip-path="url(#clip0_32_39)">
<g clip-path="url(#clip1_32_39)">
<path d="M36.75 0H11.25C5.0368 0 0 5.0368 0 11.25V36.75C0 42.9632 5.0368 48 11.25 48H36.75C42.9632 48 48 42.9632 48 36.75V11.25C48 5.0368 42.9632 0 36.75 0Z" fill="#242938"/>
<path d="M23.9017 5.00133C22.3118 5.00727 20.7291 5.2058 19.1891 5.60166C11.7801 7.44667 5.89923 14.1645 5.14527 21.7847C4.21083 28.9923 7.85359 36.503 14.08 40.224C20.1972 44.0566 28.4765 43.9033 34.4631 39.8721C39.8441 36.3735 43.1888 30.0016 42.9917 23.5678C42.9003 17.2042 39.3312 11.0178 33.8694 7.74862C30.8951 5.90956 27.396 4.98706 23.9017 5.00014V5.00133ZM23.796 7.68799C31.6241 7.67491 39.2932 13.7365 40.078 21.8358C41.5752 30.8076 34.1354 39.928 25.057 40.1942C16.4238 41.0549 8.07444 33.7237 7.82747 25.0431C7.18512 18.0162 11.8169 11.038 18.4328 8.7151C20.139 8.03512 21.958 7.68799 23.7948 7.69393L23.796 7.68799ZM31.8604 12.8033C27.605 16.1082 23.53 19.6318 19.3684 23.0376C21.2729 23.0614 23.1905 23.0614 25.1009 23.0483C27.3331 19.6187 29.6282 16.2342 31.8604 12.8033ZM22.8936 24.9326C20.6614 28.3694 18.3616 31.761 16.127 35.1978C20.3955 31.8977 24.4514 28.3503 28.638 24.9635C26.7204 24.9397 24.8041 24.9338 22.8924 24.9338L22.8936 24.9326Z" fill="white"/>
</g>
</g>
<defs>
<clipPath id="clip0_32_39">
<rect width="48" height="48" fill="white"/>
</clipPath>
<clipPath id="clip1_32_39">
<rect width="48" height="48" fill="white"/>
</clipPath>
</defs>
</svg>
