<svg width="48" height="48" viewBox="0 0 48 48" fill="none" xmlns="http://www.w3.org/2000/svg">
<g clip-path="url(#clip0_155_2)">
<mask id="mask0_155_2" style="mask-type:luminance" maskUnits="userSpaceOnUse" x="0" y="0" width="48" height="48">
<path d="M48 0H0V48H48V0Z" fill="white"/>
</mask>
<g mask="url(#mask0_155_2)">
<mask id="mask1_155_2" style="mask-type:luminance" maskUnits="userSpaceOnUse" x="0" y="0" width="48" height="48">
<path d="M48 0H0V48H48V0Z" fill="white"/>
</mask>
<g mask="url(#mask1_155_2)">
<path d="M36.75 0H11.25C5.0368 0 0 5.0368 0 11.25V36.75C0 42.9632 5.0368 48 11.25 48H36.75C42.9632 48 48 42.9632 48 36.75V11.25C48 5.0368 42.9632 0 36.75 0Z" fill="#242938"/>
<path d="M42.3172 23.6655C42.3804 19.7596 41.5004 15.1148 39.6671 9.66522L38.2297 5.39172L36.2772 9.45531C36.1727 9.67256 36.0536 9.88522 35.9289 10.0951C32.7215 7.34147 28.5598 5.66672 24.0003 5.66672C13.8748 5.66672 5.66699 13.8746 5.66699 24.0001C5.66699 34.1256 13.8748 42.3334 24.0003 42.3334C34.1258 42.3334 42.3337 34.1256 42.3337 24.0001C42.3337 23.8873 42.319 23.7782 42.3172 23.6655Z" fill="#8BC34A"/>
<path d="M38.1029 31.8448C35.2401 35.7883 30.1728 36.0001 25.4034 35.9167H19.1875H17.411C21.47 34.4564 23.8854 34.109 26.3521 32.8C30.9978 30.3571 35.5903 25.012 36.5464 19.4515C34.7772 24.8012 29.4156 29.3973 24.5298 31.2664C21.1821 32.5433 15.1358 33.7827 15.1358 33.7827L14.891 33.6498C10.7752 31.579 10.6505 22.3628 18.1333 19.3873C21.4095 18.0829 24.5435 18.7998 28.0828 17.9271C31.8613 16.9994 36.232 14.0697 38.0103 10.25C40.0013 16.3614 42.3975 25.9305 38.1029 31.8448ZM16.3623 37.2413C16.1038 37.5621 15.7087 37.75 15.2962 37.75C14.5418 37.75 13.9258 37.1294 13.9258 36.375C13.9258 35.6206 14.5464 35 15.2962 35C15.6088 35 15.9168 35.1082 16.1588 35.308C16.7455 35.7837 16.8371 36.6546 16.3623 37.2413Z" fill="white"/>
</g>
</g>
</g>
<defs>
<clipPath id="clip0_155_2">
<rect width="48" height="48" fill="white"/>
</clipPath>
</defs>
</svg>
