<svg width="48" height="48" viewBox="0 0 48 48" fill="none" xmlns="http://www.w3.org/2000/svg">
<g clip-path="url(#clip0_34_57)">
<g clip-path="url(#clip1_34_57)">
<path d="M36.75 0H11.25C5.0368 0 0 5.0368 0 11.25V36.75C0 42.9632 5.0368 48 11.25 48H36.75C42.9632 48 48 42.9632 48 36.75V11.25C48 5.0368 42.9632 0 36.75 0Z" fill="#242938"/>
<g clip-path="url(#clip2_34_57)">
<path d="M25.3288 13.8733C25.7139 13.8733 26.0272 14.1688 26.0367 14.5368L26.0369 14.5541V22.3467C26.0369 22.7169 25.7296 23.0181 25.3468 23.0273L25.3288 23.0275H18.7193C18.3342 23.0275 18.0209 22.732 18.0113 22.364L18.0111 22.3467V14.5541C18.0111 14.1839 18.3185 13.8827 18.7013 13.8735L18.7193 13.8733H25.3288ZM25.3288 14.1762H18.7193C18.5068 14.1762 18.3336 14.3381 18.3259 14.5406L18.3256 14.5541V22.3467C18.3259 22.5511 18.4944 22.7175 18.7052 22.725L18.7193 22.7252H25.3288C25.5413 22.7249 25.7145 22.5629 25.7222 22.3603L25.7225 22.3467V14.5541C25.7221 14.3453 25.546 14.1762 25.3288 14.1762ZM19.6633 21.1362V21.5897H19.191V21.1362H19.6633ZM24.9357 21.1362V21.5897H19.8998V21.1362H24.9357ZM19.6633 19.1693V19.6228H19.191V19.1693H19.6633ZM24.9357 19.1693V19.6228H19.8998V19.1693H24.9357ZM19.6633 17.278V17.7315H19.191V17.278H19.6633ZM24.9357 17.278V17.7315H19.8998V17.278H24.9357ZM24.9357 15.5379V15.992H19.191V15.5379H24.9357Z" fill="#8E8F8F"/>
<path d="M25.3288 24.6153V24.62C25.712 24.62 26.0245 24.9128 26.0366 25.279L26.0369 25.2962V33.0887C26.0369 33.459 25.7296 33.7602 25.3468 33.7694L25.3288 33.7696H18.7193C18.5315 33.7696 18.3513 33.6978 18.2185 33.5702C18.0908 33.4474 18.0169 33.2826 18.0114 33.1095L18.0111 33.0887V25.2962C18.0111 24.9259 18.3185 24.6247 18.7013 24.6156L18.7193 24.6153H25.3288ZM25.3288 24.9183H18.7193C18.5068 24.9183 18.3336 25.0801 18.3259 25.2826L18.3256 25.2962V33.0887C18.3259 33.2931 18.4944 33.4595 18.7052 33.467L18.7193 33.4672H25.3288C25.5404 33.4669 25.7131 33.3063 25.7221 33.1046L25.7225 33.0911V25.2985C25.7221 25.0942 25.5535 24.928 25.3429 24.9208L25.3288 24.9206V24.9183ZM19.6633 31.88V32.3341H19.191V31.88H19.6633ZM24.9357 31.8835V32.3306H19.8998V31.8835H24.9357ZM19.6633 29.9131V30.3672H19.191V29.9131H19.6633ZM24.9357 29.9166V30.3637H19.8998V29.9166H24.9357ZM19.6633 28.0224V28.4759H19.191V28.0224H19.6633ZM24.9357 28.0259V28.4724H19.8998V28.0259H24.9357ZM24.9357 26.2823V26.7363H19.191V26.2823H24.9357Z" fill="#8E8F8F"/>
<path d="M27.2349 18.4504V18.8283H29.5953V29.1067H27.2349V29.4852H29.5953H29.989V29.1067V18.8283V18.4504H29.5953H27.2349Z" fill="#8E8F8F"/>
<path d="M10.4165 11.7779C10.8819 11.0441 11.6486 10.616 12.4231 10.3674L12.5287 10.3346L12.6343 10.304C12.687 10.2892 12.7397 10.2752 12.7921 10.2619L12.8968 10.2364C12.9142 10.2323 12.9316 10.2282 12.9489 10.2243L13.0525 10.2016C13.0697 10.1979 13.0869 10.1944 13.104 10.1909L13.2063 10.1708L13.3074 10.1524L13.4071 10.1357L13.5055 10.1205L13.6021 10.1068L13.697 10.0944L13.7899 10.0835L13.8806 10.0737L13.9691 10.0652L14.0971 10.0545L14.219 10.0461L14.3343 10.0397L14.4595 10.0346L14.5741 10.0315L14.6441 10.0304L14.7087 10.0299H14.7675L14.8446 10.0309L14.8882 10.0318L14.9675 10.0343L15.0026 10.036V11.8523C13.3315 11.6995 12.5859 12.1847 12.2571 12.7018L12.2275 12.7504C12.1849 12.8233 12.1501 12.8964 12.1219 12.9682L12.1041 13.0158C12.1013 13.0237 12.0985 13.0315 12.0958 13.0394L12.0807 13.0862L12.0673 13.1322L12.0554 13.1775C12.0536 13.1849 12.0518 13.1923 12.0501 13.1997L12.0405 13.2436C12.039 13.2508 12.0376 13.2579 12.0362 13.2651L12.0286 13.3072L12.0223 13.3481L12.0171 13.3876L12.0112 13.4441L12.0074 13.4969L12.0055 13.5382L12.0046 13.5765L12.0046 13.6114L12.0053 13.6427L12.0064 13.6703L12.0086 13.7039L12.0126 13.7437L12.0125 14.4109L12.0085 15.7733L12.0035 16.755L11.9978 17.5808L11.9914 18.2788L11.9853 18.8283L11.978 19.3632L11.9706 19.8193L11.961 20.3026L11.9551 20.5543L11.9487 20.7922L11.9405 21.0572L11.9376 21.1401L11.9374 21.2935L11.9365 21.3874L11.9354 21.4507L11.9328 21.5467L11.9289 21.6394L11.9257 21.6959L11.9218 21.7526L11.9172 21.8096L11.9086 21.8952L11.9018 21.9524L11.894 22.0097L11.8851 22.067C11.8836 22.0766 11.8819 22.0861 11.8803 22.0956L11.8697 22.1529C11.8678 22.1624 11.8659 22.1719 11.8639 22.1815L11.8514 22.2386L11.8376 22.2955L11.8224 22.3523C11.8171 22.3712 11.8116 22.39 11.8058 22.4089L11.7876 22.4652L11.7678 22.5212L11.7463 22.5768C11.5043 23.178 10.9564 23.7134 9.7156 23.9613C10.9226 24.2022 11.474 24.7147 11.7258 25.2953L11.7489 25.3508C11.7711 25.4064 11.7907 25.4627 11.808 25.5193L11.8246 25.576C11.8351 25.6139 11.8446 25.652 11.8533 25.6901L11.8656 25.7474C11.8676 25.757 11.8695 25.7665 11.8713 25.7761L11.8818 25.8335L11.8911 25.8909L11.8993 25.9484L11.9064 26.0058L11.9127 26.0631L11.918 26.1203L11.9225 26.1774L11.9279 26.2626L11.9307 26.3191L11.9341 26.4137L11.9356 26.4763L11.9366 26.5383L11.9374 26.6303L11.9376 26.783L11.9461 27.049L11.9536 27.3299L11.9606 27.6311L11.967 27.9501L11.9737 28.341L11.983 28.9869L11.9893 29.5343L11.9924 29.8423L11.9991 30.6289L12.0064 31.796L12.0114 33.0592L12.0132 33.0581V34.1783L12.0113 34.1942L12.0092 34.2181L12.0077 34.2395L12.0059 34.2793L12.0052 34.3106L12.0052 34.3455L12.0061 34.3838L12.008 34.4251L12.0118 34.4772L12.0154 34.514L12.0226 34.5719L12.0288 34.6122L12.0362 34.6537L12.0449 34.6964C12.0465 34.7035 12.0481 34.7108 12.0497 34.7181L12.0605 34.7622C12.0624 34.7696 12.0644 34.7771 12.0665 34.7846L12.0795 34.83L12.0942 34.8761C12.0968 34.8838 12.0995 34.8915 12.1022 34.8993L12.1196 34.9463C12.1257 34.962 12.1321 34.9778 12.1388 34.9936L12.16 35.0413C12.4224 35.607 13.1147 36.218 14.9051 36.078L15.0032 36.0697V37.886L14.953 37.8883L14.86 37.8909L14.7835 37.8921H14.6926L14.6245 37.8914L14.5508 37.8901L14.4717 37.8879L14.369 37.8839L14.2966 37.8804L14.2212 37.8761L14.1431 37.8709L14.0623 37.8648L13.979 37.8578L13.8933 37.8496L13.8055 37.8404L13.7157 37.8299L13.6239 37.8183C13.6085 37.8162 13.593 37.8141 13.5774 37.8119L13.4831 37.7983C13.4672 37.7959 13.4513 37.7934 13.4354 37.7909L13.3388 37.7751C13.3226 37.7723 13.3064 37.7695 13.2901 37.7666L13.1917 37.7485C13.1752 37.7454 13.1587 37.7422 13.1421 37.7389L13.0422 37.7183L12.9415 37.6961C12.9078 37.6884 12.874 37.6804 12.8401 37.6721L12.7381 37.6463C11.8018 37.4008 10.8182 36.9158 10.3122 35.9654C10.4219 34.7971 10.9217 33.801 11.8194 33.1811C11.8617 33.1525 11.9045 33.1247 11.9478 33.0978L11.9967 33.0679C11.936 33.104 11.8763 33.1422 11.8176 33.1823C10.9217 33.801 10.4219 34.7971 10.3122 35.9607C10.087 35.5235 9.969 35.0424 9.9673 34.5545L9.95604 34.0537L9.94142 33.4467L9.92312 32.7362L9.8982 31.8306L9.87533 31.0452L9.84383 30.0168L9.80832 28.9153L9.74894 27.182L9.73449 26.7801C9.69935 25.8702 9.31944 25.4269 8.92407 25.213L8.87751 25.1888C8.86974 25.185 8.86198 25.1812 8.85421 25.1775L8.80766 25.1564C8.79216 25.1497 8.77668 25.1433 8.76126 25.1372L8.71513 25.1198C8.69981 25.1143 8.68456 25.1091 8.6694 25.1041L8.62418 25.0901C8.6092 25.0857 8.59434 25.0816 8.57959 25.0776L8.54424 25.0687L8.50945 25.0606L8.47526 25.0534L8.44174 25.0471L8.39287 25.0389L8.36131 25.0344L8.33064 25.0305L8.28644 25.0259L8.24751 25.0257L8.16788 25.0248C8.12742 25.0243 8.08593 25.024 8.04318 25.0248L8 25.0259V22.8973C8.10361 22.9008 8.19624 22.899 8.28644 22.8944L8.33064 22.8897L8.36131 22.8858L8.39287 22.8813L8.44174 22.8732L8.47526 22.8668L8.50945 22.8596L8.54424 22.8516L8.57959 22.8426L8.62418 22.8301L8.6694 22.8161L8.71513 22.8004C9.17462 22.6352 9.69315 22.2107 9.73449 21.1401L9.78837 19.6008L9.82984 18.3433L9.85236 17.6297L9.88682 16.4849L9.90943 15.6887L9.9258 15.0822L9.94641 14.2702L9.95837 13.7653L9.9673 13.3652C9.98101 12.7344 10.1427 12.2224 10.3994 11.8067L10.4166 11.7793L10.4165 11.7779ZM32.9968 11.8225V10.0061L33.0476 10.0038L33.1181 10.0017L33.1638 10.0008L33.2446 10H33.3062L33.3736 10.0007L33.4778 10.0027L33.6106 10.0073L33.6817 10.0106L33.7558 10.0146L33.8722 10.0223L33.953 10.0285L34.0363 10.0357L34.1218 10.044L34.2096 10.0534L34.2993 10.064L34.3908 10.0758L34.484 10.089L34.5788 10.1035C34.5948 10.106 34.6107 10.1086 34.6268 10.1113L34.7236 10.128L34.8216 10.1462L34.9206 10.166L35.0205 10.1875L35.1211 10.2107C35.1716 10.2228 35.2223 10.2355 35.2731 10.2489L35.3749 10.2767C36.3261 10.5453 37.304 11.069 37.7633 12.0826C37.9381 12.4788 38.0297 12.9043 38.0327 13.3347L38.044 13.8355L38.0586 14.4426L38.0689 14.8488L38.085 15.4568L38.1075 16.2575L38.1247 16.8444L38.1562 17.8729L38.1917 18.9744L38.2511 20.7078L38.2655 21.1097C38.3012 22.0348 38.6933 22.4772 39.0957 22.687L39.1421 22.7102C39.1499 22.7139 39.1576 22.7175 39.1653 22.7211L39.2117 22.7413L39.2579 22.7597C39.2656 22.7626 39.2732 22.7655 39.2809 22.7683L39.3265 22.784C39.3341 22.7865 39.3416 22.789 39.3491 22.7913L39.394 22.8047C39.4014 22.8068 39.4088 22.8088 39.4162 22.8108L39.4819 22.827L39.5247 22.8362L39.5665 22.8441L39.6071 22.8507L39.6387 22.8553L39.6694 22.8592L39.7136 22.8639C39.7909 22.8679 39.8713 22.8698 39.9568 22.868L40 22.8668V24.996C39.8964 24.9925 39.8038 24.9942 39.7136 24.9989L39.6843 25.0019L39.6541 25.0054L39.6071 25.012L39.5583 25.0201L39.5247 25.0265L39.4906 25.0337L39.4558 25.0417L39.4204 25.0507L39.3982 25.0567L39.3533 25.07C39.3457 25.0723 39.3382 25.0747 39.3306 25.0772L39.2849 25.0929C39.2772 25.0956 39.2695 25.0984 39.2618 25.1013L39.2156 25.1196C38.7747 25.3021 38.3048 25.7362 38.2655 26.7531L38.2116 28.2917L38.1702 29.5492L38.1476 30.263L38.1132 31.4079L38.0906 32.2042L38.0742 32.8107L38.0536 33.6226L38.0416 34.1274L38.0327 34.5276C38.0292 34.9019 37.9601 35.2729 37.8283 35.625L37.8124 35.6662L37.8133 35.6701C37.3422 36.84 36.2025 37.39 35.1503 37.646L35.0471 37.6702C35.0299 37.6741 35.0128 37.6779 34.9957 37.6817L34.8937 37.7032C34.8767 37.7066 34.8599 37.71 34.843 37.7133L34.7425 37.7323C34.7258 37.7353 34.7092 37.7383 34.6926 37.7411L34.5939 37.7577C34.5776 37.7603 34.5613 37.7629 34.5451 37.7654L34.4487 37.7797L34.3539 37.7926L34.261 37.8042L34.17 37.8145L34.0813 37.8235L33.9948 37.8315L33.8699 37.8414L33.7899 37.8468L33.6755 37.8532L33.5681 37.8579L33.4367 37.8617L33.3619 37.8629L33.2933 37.8634H33.231L33.1754 37.8628L33.1268 37.8619L33.0677 37.8602L33.0164 37.8582L32.9987 37.8573V36.0409C34.748 36.201 35.4832 35.6617 35.7876 35.1186L35.8138 35.07C35.8221 35.0538 35.8301 35.0376 35.8377 35.0215L35.8595 34.9731C35.8664 34.9571 35.873 34.941 35.8793 34.9251L35.8971 34.8775L35.9132 34.8304C35.9157 34.8226 35.9181 34.8149 35.9205 34.8071L35.9339 34.7611L35.9458 34.7158L35.9561 34.6715L35.965 34.6282L35.9726 34.5861L35.9789 34.5452L35.9841 34.5057L35.99 34.4492L35.9928 34.4136L35.9957 34.355L35.9966 34.3168L35.9966 34.2819L35.9959 34.2506L35.9948 34.223L35.9934 34.1995L35.9905 34.1655L35.9886 34.1496V33.1536L35.9915 32.2262L35.9963 31.2693L36.0018 30.4628L36.0092 29.6395L36.0177 28.9006L36.0238 28.471L36.0294 28.125L36.0368 27.7282L36.0422 27.477L36.0479 27.2381L36.0541 27.0128L36.0624 26.7526L36.0626 26.5998L36.0635 26.5069L36.0645 26.4442L36.0661 26.381L36.0696 26.2853L36.0729 26.2211L36.0765 26.1639L36.0808 26.1066L36.086 26.049L36.092 25.9914L36.099 25.9336L36.107 25.8758C36.1085 25.8662 36.1099 25.8565 36.1114 25.8469L36.1211 25.7891L36.132 25.7313L36.1441 25.6737L36.1576 25.6161C36.1741 25.5491 36.1934 25.4824 36.2162 25.4164L36.2365 25.3599C36.2647 25.2849 36.2975 25.2107 36.3356 25.138L36.3652 25.0837C36.6508 24.5792 37.2059 24.1463 38.2844 23.9308C36.9241 23.6593 36.3966 23.0431 36.192 22.3732L36.1754 22.3165C36.1649 22.2786 36.1554 22.2406 36.1467 22.2024L36.1344 22.1452C36.1324 22.1356 36.1305 22.1261 36.1287 22.1165L36.1182 22.0591L36.1089 22.0017L36.1007 21.9442L36.0936 21.8868L36.0873 21.8295L36.082 21.7723L36.0775 21.7153L36.0721 21.6301L36.0693 21.5736L36.0659 21.4789L36.0644 21.4164L36.0634 21.3544L36.0626 21.2624L36.0624 21.1097L36.0566 20.9322L36.0501 20.7065L36.0428 20.4161L36.0362 20.1068L36.0301 19.7812L36.0228 19.3261L36.0142 18.6716L36.0077 18.06L36.0016 17.3516L35.9937 16.0918L35.9886 14.7268C36.0961 14.6697 36.2002 14.6072 36.3006 14.5393C36.8012 14.1945 37.1781 13.73 37.4322 13.1835L37.4496 13.1452C37.1953 13.7084 36.8121 14.1867 36.2988 14.5399C36.2151 14.5964 36.1288 14.6493 36.0402 14.6984L35.9868 14.7274V13.7138L35.9887 13.6979L35.9908 13.6741L35.9923 13.6527L35.9941 13.6129L35.9948 13.5815L35.9948 13.5466L35.9939 13.5084L35.992 13.467L35.9897 13.4327L35.9846 13.3781L35.9774 13.3202L35.9712 13.2799L35.9638 13.2384L35.9551 13.1958C35.9536 13.1886 35.9519 13.1813 35.9503 13.1741L35.9395 13.1299C35.9376 13.1225 35.9356 13.115 35.9335 13.1075L35.9205 13.0621L35.9058 13.0161C35.9032 13.0083 35.9005 13.0006 35.8978 12.9928L35.8804 12.9459C35.8743 12.9301 35.8679 12.9144 35.8612 12.8985L35.84 12.8508C35.5776 12.2852 34.8853 11.6741 33.0949 11.8141L32.9968 11.8225Z" fill="#FE0902"/>
<path d="M11.8962 14.3372C11.9151 14.3504 11.9345 14.3628 11.954 14.375L12.0126 14.411V13.7437L12.0107 13.7278L12.0086 13.7039L12.0071 13.6825L12.0053 13.6428L12.0046 13.6114L12.0046 13.5765L12.0055 13.5383L12.0074 13.4969L12.0097 13.4621L12.0129 13.4257L12.0171 13.3876L12.0223 13.3481L12.0287 13.3072L12.0362 13.2651L12.0451 13.2218C12.0467 13.2145 12.0484 13.2071 12.0501 13.1997L12.0612 13.1549L12.0738 13.1093C12.076 13.1016 12.0783 13.0939 12.0807 13.0862L12.0959 13.0394C12.0985 13.0316 12.1013 13.0237 12.1041 13.0158L12.1219 12.9682C12.1501 12.8965 12.1849 12.8233 12.2275 12.7504L12.2571 12.7018C12.5859 12.1847 13.3315 11.6995 15.0026 11.8524V10.036L14.9676 10.0343L14.9075 10.0323L14.8672 10.0313L14.7675 10.03L14.7087 10.0299L14.6441 10.0304L14.5372 10.0323L14.4394 10.0353L14.3343 10.0398L14.219 10.0461L14.0971 10.0545L14.0124 10.0614L13.8806 10.0738L13.7899 10.0835L13.697 10.0945L13.6021 10.1068L13.5055 10.1205L13.4072 10.1357L13.3074 10.1524L13.2063 10.1708L13.104 10.1909C13.0869 10.1944 13.0698 10.1979 13.0526 10.2016L12.9489 10.2243C12.9316 10.2283 12.9142 10.2323 12.8968 10.2364L12.7921 10.2619C12.7397 10.2752 12.687 10.2892 12.6343 10.304L12.5287 10.3347L12.4231 10.3675C11.6486 10.616 10.8819 11.0441 10.4165 11.7779C10.567 12.8496 11.0582 13.763 11.8962 14.3372ZM15.0032 37.886V36.0697C13.1755 36.2369 12.4549 35.6408 12.1758 35.0744L12.153 35.026C12.1421 35.0018 12.1319 34.9777 12.1225 34.9538L12.1047 34.9062C12.1019 34.8983 12.0991 34.8905 12.0965 34.8826L12.0813 34.8359L12.0679 34.7898L12.0561 34.7446L12.0457 34.7002L12.0368 34.657L12.0293 34.6148L12.0229 34.5739L12.0177 34.5344L12.0118 34.4779L12.008 34.4251L12.0061 34.3838L12.0052 34.3455L12.0052 34.3106L12.0059 34.2793L12.007 34.2517L12.0084 34.2282L12.0114 34.1942L12.0132 34.1773V33.0581C11.9474 33.0972 11.8828 33.1382 11.8194 33.1811C10.9217 33.801 10.422 34.7971 10.3123 35.9654C10.8182 36.9158 11.8018 37.4008 12.7382 37.6463L12.8401 37.6721C12.874 37.6804 12.9078 37.6884 12.9415 37.6961L13.0422 37.7184L13.1421 37.7389L13.2411 37.7578C13.2575 37.7608 13.2738 37.7637 13.2901 37.7666L13.3873 37.7832C13.4034 37.7858 13.4194 37.7884 13.4354 37.7909L13.5304 37.8053C13.5462 37.8076 13.5618 37.8098 13.5774 37.8119L13.67 37.8243C13.6853 37.8262 13.7005 37.8281 13.7157 37.83L13.8055 37.8404L13.8934 37.8496L13.979 37.8578L14.0623 37.8649L14.1431 37.8709L14.2212 37.8761L14.2966 37.8804L14.404 37.8854L14.4717 37.8879L14.5508 37.8901L14.6246 37.8914L14.6926 37.8921L14.7835 37.8919L14.86 37.8909L14.9212 37.8894L15.0032 37.886ZM37.7633 12.0826C37.2747 11.0044 36.1995 10.4806 35.1937 10.2285L35.0934 10.2042L34.9937 10.1816C34.9771 10.178 34.9606 10.1744 34.9441 10.1709L34.8456 10.1509C34.8292 10.1476 34.8129 10.1445 34.7967 10.1414L34.6997 10.1237L34.6038 10.1075L34.5094 10.0927L34.4164 10.0793L34.325 10.0672L34.2354 10.0564L34.1477 10.0467L34.0621 10.0382L33.9787 10.0307L33.8581 10.0213L33.7433 10.0139L33.6348 10.0083L33.533 10.0044L33.4692 10.0025L33.3923 10.0009L33.3213 10.0002L33.2565 10L33.1982 10.0004L33.1466 10.0011L33.0826 10.0026L33.0357 10.0043L32.9968 10.0062V11.8225C34.8245 11.6553 35.5451 12.2514 35.8242 12.8177L35.847 12.8662C35.8579 12.8903 35.8681 12.9144 35.8775 12.9383L35.8953 12.9859C35.8981 12.9938 35.9009 13.0017 35.9036 13.0095L35.9187 13.0563L35.9321 13.1023L35.944 13.1476L35.9543 13.1919L35.9632 13.2352L35.9708 13.2773L35.9771 13.3182L35.9823 13.3577L35.9882 13.4142L35.992 13.467L35.9939 13.5084L35.9948 13.5466L35.9948 13.5815L35.9941 13.6129L35.993 13.6404L35.9908 13.6741L35.9868 13.7141V14.7274C36.0942 14.6703 36.1984 14.6078 36.2988 14.5399C37.1112 13.981 37.5976 13.1085 37.7633 12.0826ZM36.3793 33.3839C36.2547 33.2986 36.1241 33.2217 35.9886 33.1536V34.1497L35.9905 34.1655L35.9927 34.1894L35.9941 34.2108L35.9959 34.2506L35.9966 34.2819L35.9966 34.3168L35.9958 34.3551L35.9928 34.4136L35.99 34.4492L35.9841 34.5057L35.9789 34.5452L35.9726 34.5861L35.965 34.6282L35.9561 34.6715L35.9458 34.7159L35.9339 34.7611L35.9205 34.8072C35.9181 34.8149 35.9157 34.8227 35.9132 34.8305L35.8971 34.8775L35.8793 34.9251C35.873 34.9411 35.8664 34.9571 35.8595 34.9731L35.8377 35.0215C35.8301 35.0376 35.8221 35.0538 35.8138 35.07L35.7877 35.1186C35.4832 35.6617 34.748 36.201 32.9987 36.041V37.8573L33.0266 37.8587L33.1071 37.8614L33.206 37.8631L33.2661 37.8634L33.3685 37.8628L33.4445 37.8615L33.5264 37.8593L33.6278 37.8555L33.7361 37.85L33.8119 37.8454L33.9305 37.8368L34.0127 37.8299L34.0972 37.822L34.1838 37.813L34.2725 37.8028L34.3631 37.7914L34.4553 37.7788L34.5492 37.7648C34.565 37.7624 34.5808 37.7598 34.5967 37.7573L34.6926 37.7412L34.7898 37.7235C34.8061 37.7205 34.8224 37.7173 34.8388 37.7141L34.9375 37.6941C34.954 37.6907 34.9706 37.6871 34.9872 37.6835L35.0871 37.661C36.1566 37.4118 37.3328 36.8634 37.8133 35.6701C37.6232 34.7168 37.1441 33.9106 36.3793 33.3839Z" fill="#FFAB00"/>
</g>
</g>
</g>
<defs>
<clipPath id="clip0_34_57">
<rect width="48" height="48" fill="white"/>
</clipPath>
<clipPath id="clip1_34_57">
<rect width="48" height="48" fill="white"/>
</clipPath>
<clipPath id="clip2_34_57">
<rect width="32" height="28" fill="white" transform="translate(8 10)"/>
</clipPath>
</defs>
</svg>
