<svg width="48" height="48" viewBox="0 0 48 48" fill="none" xmlns="http://www.w3.org/2000/svg">
<g clip-path="url(#clip0_47_127)">
<g clip-path="url(#clip1_47_127)">
<path d="M36.75 0H11.25C5.0368 0 0 5.0368 0 11.25V36.75C0 42.9632 5.0368 48 11.25 48H36.75C42.9632 48 48 42.9632 48 36.75V11.25C48 5.0368 42.9632 0 36.75 0Z" fill="#242938"/>
<path d="M12.2006 37.6975V26.2912L14.3893 38.6094L17.9524 40.3831L20.2428 30.1437V41.3475L24.2612 43.3237V24.415L18.1549 21.5256L16.2215 30.5491L14.2696 19.6666L8.19775 16.7612V35.6869L12.2006 37.6975Z" fill="#FBBD16"/>
<path d="M24.8228 24.4103L31.1996 21.0997V34.8187L40.0215 30.2569L40.0559 35.4278L24.8387 43.4209L24.8228 24.4103Z" fill="#452E7F"/>
<path d="M22.2494 4.47125L17.74 8.45688C17.74 8.45688 26.54 12.9772 27.6097 13.5116C28.6778 14.0463 30.1987 15.0731 28.5544 16.5941C26.9103 18.1138 25.1012 17.9088 23.8669 17.2934C22.6328 16.6756 13.5044 12.0738 13.5044 12.0738L8.85718 16.0188C8.85718 16.0188 17.8219 20.5797 19.3028 21.3609C20.7834 22.1422 26.2925 24.0734 31.5159 20.0047C36.7378 15.9359 35.9984 14.4566 35.9984 14.1684C35.9984 13.8816 35.875 12.3619 34.9694 11.4156C34.0659 10.4709 31.4341 9.11469 30.3231 8.53844C29.2125 7.96344 22.2494 4.47125 22.2494 4.47125Z" fill="#962444"/>
</g>
</g>
<defs>
<clipPath id="clip0_47_127">
<rect width="48" height="48" fill="white"/>
</clipPath>
<clipPath id="clip1_47_127">
<rect width="48" height="48" fill="white"/>
</clipPath>
</defs>
</svg>
