<svg width="178" height="162" viewBox="0 0 178 162" fill="none" xmlns="http://www.w3.org/2000/svg">
<g clip-path="url(#clip0_493_112)">
<path d="M88.4486 135.92C82.5286 135.92 77.0686 135.04 72.0686 133.28C67.1086 131.48 62.8086 128.98 59.1686 125.78C55.5286 122.54 52.7086 118.72 50.7086 114.32C48.7086 109.88 47.7086 105.02 47.7086 99.74C47.7086 93.78 49.2486 87.26 52.3286 80.18C55.4486 73.06 59.7886 66.12 65.3486 59.36L85.2686 35H117.189L89.1086 68.24C89.7486 67.96 90.5686 67.76 91.5686 67.64C92.6086 67.48 93.7686 67.4 95.0486 67.4C99.5686 67.4 103.689 68.24 107.409 69.92C111.169 71.56 114.409 73.9 117.129 76.94C119.849 79.94 121.949 83.52 123.429 87.68C124.949 91.8 125.709 96.34 125.709 101.3C125.709 108.26 124.149 114.34 121.029 119.54C117.949 124.7 113.609 128.72 108.009 131.6C102.449 134.48 95.9286 135.92 88.4486 135.92ZM87.0686 114.08C89.3886 114.08 91.4486 113.56 93.2486 112.52C95.0886 111.48 96.5286 110.06 97.5686 108.26C98.6486 106.46 99.1886 104.42 99.1886 102.14C99.1886 99.82 98.6486 97.74 97.5686 95.9C96.5286 94.06 95.0886 92.62 93.2486 91.58C91.4486 90.5 89.3886 89.96 87.0686 89.96C84.7886 89.96 82.7486 90.5 80.9486 91.58C79.1886 92.62 77.7886 94.06 76.7486 95.9C75.7086 97.7 75.1886 99.78 75.1886 102.14C75.1886 104.46 75.6886 106.52 76.6886 108.32C77.7286 110.12 79.1486 111.54 80.9486 112.58C82.7486 113.58 84.7886 114.08 87.0686 114.08Z" fill="#775AD8"/>
</g>
<path d="M139.251 52.888V42.2H128.563V30.68H139.251V19.992H150.771V30.68H161.459V42.2H150.771V52.888H139.251Z" fill="#775AD8"/>
<rect x="4.5" y="4.5" width="169" height="153" stroke="#375281" stroke-width="9"/>
<defs>
<clipPath id="clip0_493_112">
<rect width="110" height="122" fill="white" transform="translate(34 32)"/>
</clipPath>
</defs>
</svg>
