<svg width="178" height="162" viewBox="0 0 178 162" fill="none" xmlns="http://www.w3.org/2000/svg">
<g clip-path="url(#clip0_494_123)">
<path d="M45.582 134V120.2C52.422 115.08 58.482 110.32 63.762 105.92C69.082 101.52 73.682 97.48 77.562 93.8C81.442 90.08 84.622 86.66 87.102 83.54C89.622 80.38 91.482 77.5 92.682 74.9C93.922 72.3 94.542 69.9 94.542 67.7C94.542 65.66 94.062 63.78 93.102 62.06C92.142 60.34 90.822 58.96 89.142 57.92C87.462 56.88 85.522 56.36 83.322 56.36C81.322 56.36 79.462 56.9 77.742 57.98C76.022 59.02 74.342 60.72 72.702 63.08C71.102 65.4 69.422 68.48 67.662 72.32L45.822 61.4C47.582 56.76 49.722 52.68 52.242 49.16C54.762 45.64 57.662 42.7 60.942 40.34C64.262 37.94 67.922 36.14 71.922 34.94C75.962 33.7 80.322 33.08 85.002 33.08C92.522 33.08 99.122 34.54 104.802 37.46C110.522 40.34 114.982 44.32 118.182 49.4C121.382 54.48 122.982 60.28 122.982 66.8C122.982 69.96 122.562 73.1 121.722 76.22C120.922 79.3 119.702 82.34 118.062 85.34C116.422 88.3 114.382 91.22 111.942 94.1C109.502 96.98 106.642 99.82 103.362 102.62C100.122 105.42 96.462 108.16 92.382 110.84H124.782V134H45.582Z" fill="#775AD8"/>
</g>
<path d="M135.858 53.656L127.794 45.656L136.946 36.44L127.794 27.224L135.858 19.224L145.01 28.312L154.162 19.224L162.226 27.224L153.074 36.44L162.226 45.656L154.162 53.656L145.01 44.568L135.858 53.656Z" fill="#775AD8"/>
<rect x="4.5" y="4.5" width="169" height="153" stroke="#375281" stroke-width="9"/>
<defs>
<clipPath id="clip0_494_123">
<rect width="110" height="122" fill="white" transform="translate(35 32)"/>
</clipPath>
</defs>
</svg>
