<svg width="178" height="162" viewBox="0 0 178 162" fill="none" xmlns="http://www.w3.org/2000/svg">
<g clip-path="url(#clip0_494_128)">
<path d="M77.5452 134V60.92H59.1852V35H103.945V134H77.5452Z" fill="#775AD8"/>
</g>
<path d="M128.537 42.2V30.68H161.433V42.2H128.537ZM144.985 56.408C143.385 56.408 142.009 55.832 140.857 54.68C139.726 53.5067 139.161 52.0773 139.161 50.392C139.161 48.6853 139.726 47.256 140.857 46.104C142.009 44.952 143.385 44.376 144.985 44.376C146.585 44.376 147.95 44.952 149.081 46.104C150.233 47.256 150.809 48.6853 150.809 50.392C150.809 52.0773 150.233 53.5067 149.081 54.68C147.95 55.832 146.585 56.408 144.985 56.408ZM144.985 28.504C143.385 28.504 142.009 27.928 140.857 26.776C139.726 25.6027 139.161 24.1733 139.161 22.488C139.161 20.7813 139.726 19.352 140.857 18.2C142.009 17.048 143.385 16.472 144.985 16.472C146.585 16.472 147.95 17.048 149.081 18.2C150.233 19.352 150.809 20.7813 150.809 22.488C150.809 24.1733 150.233 25.6027 149.081 26.776C147.95 27.928 146.585 28.504 144.985 28.504Z" fill="#775AD8"/>
<rect x="4.5" y="4.5" width="169" height="153" stroke="#375281" stroke-width="9"/>
<defs>
<clipPath id="clip0_494_128">
<rect width="110" height="122" fill="white" transform="translate(35 32)"/>
</clipPath>
</defs>
</svg>
